<svg xmlns="http://www.w3.org/2000/svg" width="24" height="24" viewBox="0 0 24 24" fill="none">
<mask id="mask0_2_3819" style="mask-type:luminance" maskUnits="userSpaceOnUse" x="4" y="5" width="16" height="16">
<path fill-rule="evenodd" clip-rule="evenodd" d="M4 5.00012H19.9992V20.3571H4V5.00012Z" fill="white"/>
</mask>
<g mask="url(#mask0_2_3819)">
<path fill-rule="evenodd" clip-rule="evenodd" d="M7.04 15.6668H8.56381V14.143H7.04V15.6668ZM13.9627 12.6176C13.0872 12.6192 12.2408 13.1822 11.8499 14.018C11.021 15.7925 12.5882 17.5716 14.0465 18.9239L14.2156 19.0816C14.589 19.439 15.2861 19.9723 15.8095 20.3571C16.3322 19.9723 17.0278 19.4413 17.3943 19.0908L17.5703 18.927C19.0309 17.5723 20.5981 15.7925 19.7691 14.018C19.379 13.183 18.5318 12.6207 17.6594 12.6192H17.6564C17.1726 12.6192 16.7192 12.754 16.3124 13.0192L15.811 13.3468L15.3082 13.0192C14.9006 12.7533 14.4465 12.6176 13.9627 12.6176ZM7.04 12.6192H8.56381V11.0954H7.04V12.6192ZM10.0876 9.57155H14.659V8.04774H10.0876V9.57155ZM7.04 9.57155H8.56381V8.04774H7.04V9.57155ZM5.51619 5.00012C4.67581 5.00012 4 5.68355 4 6.52393V17.1906C4 18.031 4.67581 18.7144 5.51619 18.7144H11.7021C10.5813 17.4009 9.48038 15.4733 10.461 13.3735C10.589 13.0999 10.7535 12.8516 10.9333 12.6192H10.0876V11.0954H13.9535C14.611 11.0954 15.2312 11.247 15.8019 11.5487C16.3726 11.247 16.992 11.0954 17.6488 11.0954H17.6549C17.6724 11.0954 17.6891 11.0999 17.7067 11.0999V6.52393C17.7067 5.68355 17.0232 5.00012 16.1829 5.00012H5.51619Z" fill="black"/>
</g>
</svg>