<svg xmlns="http://www.w3.org/2000/svg" width="24" height="24" viewBox="0 0 24 24" fill="none">
<path fill-rule="evenodd" clip-rule="evenodd" d="M12.625 10.4V20H17.625C18.3156 20 18.875 19.4272 18.875 18.72V10.4H12.625ZM5.125 10.4V18.72C5.125 19.4272 5.68438 20 6.375 20H11.375V10.4H5.125ZM13.25 5.28C13.6031 5.28 13.875 5.5584 13.875 5.92C13.875 6.2816 13.6031 6.56 13.25 6.56H12.625V5.92C12.625 5.5584 12.8969 5.28 13.25 5.28ZM10.75 5.28C11.1031 5.28 11.375 5.5584 11.375 5.92V6.56H10.75C10.3969 6.56 10.125 6.2816 10.125 5.92C10.125 5.5584 10.3969 5.28 10.75 5.28ZM10.75 4C9.72188 4 8.875 4.8672 8.875 5.92C8.875 6.14528 8.92125 6.3584 8.9925 6.56H5.75C5.05937 6.56 4.5 7.1328 4.5 7.84V9.12H19.5V7.84C19.5 7.1328 18.9406 6.56 18.25 6.56H15.0081C15.0788 6.3584 15.125 6.14528 15.125 5.92C15.125 4.8672 14.2781 4 13.25 4C12.7644 4 12.3344 4.21888 12 4.53376C11.6656 4.21888 11.2356 4 10.75 4Z" fill="#F1BF71"/>
</svg>