<svg xmlns="http://www.w3.org/2000/svg" width="24" height="24" viewBox="0 0 24 24" fill="none">
<path fill-rule="evenodd" clip-rule="evenodd" d="M21.9974 11.4447C21.9974 9.22908 18.5392 7.4256 14.2374 7.4256C10.8092 7.4256 7.89983 8.57916 6.87237 10.1759L6.87554 10.1752C6.77743 10.3246 6.7273 10.4854 6.7273 10.6544C6.7273 11.0544 7.01894 11.4065 7.47015 11.6389L11.4051 13.6043C11.6093 13.7014 11.8504 13.7668 12.1129 13.7668C12.3727 13.7668 12.6164 13.7014 12.8277 13.6043L16.5525 11.7403C16.804 11.6126 16.9632 11.4157 16.9632 11.1965C16.9632 10.982 16.8104 10.7925 16.5754 10.6636L15.2003 9.98447L12.1129 11.5098L9.78785 10.3451C10.684 9.65598 12.3586 9.17175 14.2785 9.17175C17.1444 9.17175 19.4694 10.2353 19.4694 11.5357C19.4085 13.5402 15.9972 15.0987 11.8641 15.0035C7.7052 14.9111 4.39388 13.1999 4.45623 11.1869C4.48489 8.5318 8.50568 6.41085 13.4357 6.45375C13.8759 6.45894 14.304 6.48713 14.7268 6.5141C13.7149 6.19165 12.4512 6 11.0773 6C9.97823 6 8.97356 6.12258 8.0828 6.33401C4.50026 7.18353 2 9.15196 2 11.4447C2 14.5109 6.48969 17 12.0019 17C17.5223 17 22 14.5109 22 11.4447H21.9974Z" fill="#2B83DC"/>
</svg>