<svg width="48" height="53" viewBox="0 0 48 53" fill="none" xmlns="http://www.w3.org/2000/svg">
<g clip-path="url(#clip0_2_3494)">
<g clip-path="url(#clip1_2_3494)">
<path d="M0.648 40.444H5.34C5.148 40.036 4.932 39.652 4.692 39.292L6.096 39.052C6.312 39.472 6.528 39.94 6.732 40.444H11.364V41.632H0.648V40.444ZM8.016 41.704C9.336 42.724 10.464 43.744 11.376 44.764L10.452 45.7C9.684 44.716 8.58 43.66 7.164 42.52L8.016 41.704ZM7.836 43.972L8.988 44.488C8.448 45.52 7.788 46.42 7.02 47.188C8.244 48.016 9.756 48.652 11.532 49.096L10.752 50.272C8.904 49.756 7.332 49.012 6.048 48.052C4.728 49.084 3.156 49.828 1.308 50.308L0.528 49.156C2.304 48.724 3.804 48.064 5.028 47.2C4.236 46.456 3.564 45.604 3.036 44.656L4.116 44.044C4.596 44.932 5.22 45.712 6 46.396C6.744 45.688 7.356 44.884 7.836 43.972ZM3.9 41.716L4.812 42.508C3.9 43.708 2.76 44.74 1.416 45.628L0.612 44.572C1.908 43.756 3.012 42.808 3.9 41.716ZM15.648 44.032H14.232V39.508H21.828V44.032H17.112C16.944 44.272 16.764 44.512 16.572 44.728H22.74C22.704 46.048 22.632 47.116 22.524 47.932C22.404 48.736 22.212 49.3 21.96 49.624C21.708 49.936 21.3 50.104 20.724 50.128H19.008L18.696 48.952C19.188 48.988 19.668 49.012 20.124 49.012C20.64 49.012 20.976 48.808 21.144 48.424C21.312 48.016 21.42 47.152 21.468 45.832H20.616C19.584 48.04 17.952 49.516 15.744 50.236L15.036 49.18C16.98 48.58 18.408 47.464 19.32 45.832H18.156C17.316 47.104 15.984 48.112 14.16 48.844L13.368 47.872C14.904 47.332 16.044 46.648 16.788 45.832H15.348C14.772 46.24 14.136 46.612 13.428 46.948L12.744 45.844C14.028 45.364 15 44.752 15.648 44.032ZM20.592 42.976V42.256H15.468V42.976H20.592ZM15.468 41.272H20.592V40.564H15.468V41.272ZM28.74 39.688V48.316H26.1V49.192H24.852V39.688H28.74ZM26.1 47.092H27.528V44.512H26.1V47.092ZM26.1 43.3H27.528V40.912H26.1V43.3ZM31.056 43.516V45.22H33.732V43.516H31.056ZM33.732 42.352V40.648H31.056V42.352H33.732ZM30.972 46.396C30.804 47.98 30.3 49.3 29.46 50.356L28.464 49.444C29.328 48.364 29.76 46.972 29.784 45.292V39.436H35.004V48.844C35.004 49.708 34.56 50.14 33.696 50.14H32.184L31.836 48.916C32.364 48.952 32.856 48.976 33.288 48.976C33.576 48.976 33.732 48.784 33.732 48.4V46.396H30.972ZM40.284 47.572V48.748C39.228 49.192 38.04 49.552 36.696 49.816L36.528 48.616C37.968 48.352 39.216 48.004 40.284 47.572ZM38.172 39.1L39.312 39.556C38.832 40.972 38.34 42.136 37.836 43.036C38.148 42.988 38.472 42.94 38.784 42.88C38.976 42.46 39.168 42.016 39.372 41.548L40.464 41.956C39.612 43.78 38.892 45.124 38.304 46C38.952 45.868 39.6 45.688 40.272 45.472V46.576C39.084 46.96 37.956 47.212 36.9 47.344L36.6 46.264C36.804 46.168 36.984 46.06 37.128 45.928C37.44 45.556 37.824 44.896 38.292 43.936C37.788 44.032 37.272 44.116 36.732 44.212L36.432 43.144C36.624 43.06 36.78 42.916 36.924 42.712C37.404 41.608 37.812 40.408 38.172 39.1ZM43.38 41.152H41.832V44.14H43.38V41.152ZM43.38 45.268H41.832V48.376H43.38V45.268ZM44.508 48.376H46.008V45.268H44.508V48.376ZM44.508 44.14H46.008V41.152H44.508V44.14ZM46.008 49.516H41.832V50.188H40.692V40H47.184V50.188H46.008V49.516Z" fill="#232A49"/>
<path fill-rule="evenodd" clip-rule="evenodd" d="M26.6011 29.9688H15.7577C14.2372 29.9688 13.0002 28.7325 13.0002 27.212V8.2368C13.0002 6.717 14.2372 5.47998 15.7577 5.47998H31.7365C33.257 5.47998 34.494 6.717 34.494 8.2368V21.5988C34.494 21.9066 34.2447 22.156 33.9368 22.156C33.6297 22.156 33.3796 21.9066 33.3796 21.5988V8.2368C33.3796 7.33132 32.6427 6.59371 31.7365 6.59371H15.7577C14.8516 6.59371 14.1139 7.33132 14.1139 8.2368V27.212C14.1139 28.1175 14.8516 28.8544 15.7577 28.8544H26.6011C26.9083 28.8544 27.1583 29.1038 27.1583 29.4116C27.1583 29.7195 26.9083 29.9688 26.6011 29.9688Z" fill="#607088"/>
<mask id="mask0_2_3494" style="mask-type:luminance" maskUnits="userSpaceOnUse" x="13" y="10" width="22" height="2">
<path fill-rule="evenodd" clip-rule="evenodd" d="M13 10.7025H34.4942V11.8169H13V10.7025Z" fill="white"/>
</mask>
<g mask="url(#mask0_2_3494)">
<path fill-rule="evenodd" clip-rule="evenodd" d="M33.937 11.8169H13.5569C13.2498 11.8169 12.9997 11.5675 12.9997 11.2597C12.9997 10.9518 13.2498 10.7025 13.5569 10.7025H33.937C34.2442 10.7025 34.4942 10.9518 34.4942 11.2597C34.4942 11.5675 34.2442 11.8169 33.937 11.8169Z" fill="#607088"/>
</g>
<path fill-rule="evenodd" clip-rule="evenodd" d="M28.7832 16.8204H16.5022C16.1951 16.8204 15.945 16.5711 15.945 16.2632C15.945 15.9553 16.1951 15.706 16.5022 15.706H28.7832C29.0904 15.706 29.3404 15.9553 29.3404 16.2632C29.3404 16.5711 29.0904 16.8204 28.7832 16.8204Z" fill="#607088"/>
<path fill-rule="evenodd" clip-rule="evenodd" d="M23.3845 20.7094H16.5022C16.1951 20.7094 15.945 20.46 15.945 20.1522C15.945 19.8443 16.1951 19.595 16.5022 19.595H23.3845C23.6917 19.595 23.9417 19.8443 23.9417 20.1522C23.9417 20.46 23.6917 20.7094 23.3845 20.7094Z" fill="#607088"/>
<mask id="mask1_2_3494" style="mask-type:luminance" maskUnits="userSpaceOnUse" x="25" y="20" width="11" height="10">
<path fill-rule="evenodd" clip-rule="evenodd" d="M25.4837 24.7031C25.4837 26.8302 27.2145 28.5604 29.341 28.5604C30.3879 28.5604 31.3379 28.1397 32.0337 27.4599L34.3183 29.2061C34.4193 29.2827 34.5384 29.3203 34.6554 29.3203C34.824 29.3203 34.9897 29.2451 35.0998 29.1009C35.2865 28.8564 35.2391 28.5068 34.9946 28.3201L32.7107 26.5753C33.02 26.0209 33.1983 25.3829 33.1983 24.7031C33.1983 22.5759 31.4682 20.8458 29.341 20.8458C27.2145 20.8458 25.4837 22.5759 25.4837 24.7031ZM26.5981 24.7031C26.5981 23.1902 27.8289 21.9602 29.341 21.9602C30.8538 21.9602 32.0846 23.1902 32.0846 24.7031C32.0846 26.2159 30.8538 27.4467 29.341 27.4467C27.8289 27.4467 26.5981 26.2159 26.5981 24.7031Z" fill="white"/>
</mask>
<g mask="url(#mask1_2_3494)">
<path fill-rule="evenodd" clip-rule="evenodd" d="M25.4837 24.7031C25.4837 26.8302 27.2145 28.5604 29.341 28.5604C30.3879 28.5604 31.3379 28.1397 32.0337 27.4599L34.3183 29.2061C34.4193 29.2827 34.5384 29.3203 34.6554 29.3203C34.824 29.3203 34.9897 29.2451 35.0998 29.1009C35.2865 28.8564 35.2391 28.5068 34.9946 28.3201L32.7107 26.5753C33.02 26.0209 33.1983 25.3829 33.1983 24.7031C33.1983 22.5759 31.4682 20.8458 29.341 20.8458C27.2145 20.8458 25.4837 22.5759 25.4837 24.7031ZM26.5981 24.7031C26.5981 23.1902 27.8289 21.9602 29.341 21.9602C30.8538 21.9602 32.0846 23.1902 32.0846 24.7031C32.0846 26.2159 30.8538 27.4467 29.341 27.4467C27.8289 27.4467 26.5981 26.2159 26.5981 24.7031Z" fill="url(#paint0_linear_2_3494)"/>
</g>
</g>
</g>
<defs>
<linearGradient id="paint0_linear_2_3494" x1="25.4836" y1="29.3202" x2="35.214" y2="29.3202" gradientUnits="userSpaceOnUse">
<stop stop-color="#EBC675"/>
<stop offset="1" stop-color="#D4B179"/>
</linearGradient>
<clipPath id="clip0_2_3494">
<rect width="48" height="53" fill="white"/>
</clipPath>
<clipPath id="clip1_2_3494">
<rect width="48" height="53" fill="white"/>
</clipPath>
</defs>
</svg>
