<svg preserveAspectRatio="xMidYMid meet" width="100%" height="100%" overflow="visible" style="display: block;" viewBox="0 0 18 12" fill="none" xmlns="http://www.w3.org/2000/svg">
<path id="&#229;&#189;&#162;&#231;&#138;&#182;" fill-rule="evenodd" clip-rule="evenodd" d="M0 6.09413C0 6.09413 3.38889 0 9 0C14.6091 0 18 6.09413 18 6.09413C18 6.09413 14.0844 12 9 12C3.91564 12 0 6.09413 0 6.09413ZM8.94033 11.166C10.9671 11.166 12.9918 10.089 14.8992 8.37723C15.6132 7.74462 16.2099 7.04633 16.7449 6.41372C16.8642 6.28895 16.9835 6.16198 17.0432 6.03502C17.0138 5.97346 16.9698 5.91136 16.9256 5.84899C16.8803 5.78496 16.8348 5.72065 16.8045 5.65633C16.2675 4.95804 15.7305 4.26195 15.0761 3.62714C13.2305 1.85188 11.2037 0.7749 8.94033 0.7749C6.67695 0.7749 4.65021 1.85188 2.80453 3.62714C2.14815 4.26195 1.55144 4.96023 1.07613 5.65633C1.04669 5.7179 1.00272 5.77999 0.958557 5.84236C0.913217 5.90639 0.867676 5.97071 0.837449 6.03502C0.897884 6.09821 0.943017 6.16196 0.988346 6.22598C1.03253 6.28838 1.0769 6.35105 1.1358 6.41372C1.65871 7.09411 2.2976 7.71385 2.93718 8.33426C2.95195 8.34859 2.96672 8.36291 2.98148 8.37723C4.88889 10.1547 6.91358 11.166 8.94033 11.166Z" fill="var(--fill-0, #9199BD)"/>
</svg>
