<svg width="48" height="53" viewBox="0 0 48 53" fill="none" xmlns="http://www.w3.org/2000/svg">
<g clip-path="url(#clip0_2_3522)">
<g clip-path="url(#clip1_2_3522)">
<path d="M6.504 44.428H13.164C14.004 42.82 14.724 41.068 15.3 39.172L16.548 39.64C15.888 41.56 15.204 43.156 14.484 44.428H17.496V45.64H6.504V44.428ZM8.352 39.856C8.928 40.912 9.48 42.076 10.008 43.348L8.832 43.936C8.328 42.64 7.776 41.464 7.176 40.432L8.352 39.856ZM11.244 39.148C11.808 40.264 12.348 41.5 12.864 42.844L11.7 43.432C11.196 42.064 10.644 40.816 10.056 39.712L11.244 39.148ZM9.672 46.024L10.8 46.588C9.996 47.968 9.036 49.156 7.932 50.164L6.888 49.42C7.968 48.472 8.904 47.344 9.672 46.024ZM14.388 45.964C15.588 47.26 16.5 48.376 17.148 49.336L16.008 50.128C15.348 49.084 14.448 47.92 13.32 46.624L14.388 45.964ZM27.108 39.04C27.648 39.448 28.104 39.868 28.488 40.288L27.936 40.852H29.364V42.04H25.836C25.932 43.432 26.076 44.512 26.268 45.256C26.304 45.424 26.352 45.58 26.4 45.748C26.88 44.908 27.276 43.936 27.588 42.856L28.728 43.348C28.26 44.872 27.66 46.168 26.928 47.236C27.036 47.476 27.156 47.692 27.276 47.872C27.612 48.388 27.876 48.652 28.056 48.652C28.176 48.652 28.32 48.076 28.476 46.924L29.604 47.536C29.292 49.228 28.848 50.08 28.248 50.08C27.72 50.08 27.168 49.72 26.58 49.012C26.412 48.796 26.244 48.556 26.1 48.292C25.308 49.156 24.396 49.816 23.364 50.272L22.644 49.216C23.772 48.712 24.732 47.98 25.524 47.02C25.356 46.6 25.212 46.144 25.08 45.652C24.816 44.692 24.648 43.48 24.552 42.04H20.808V43.708H23.748C23.712 45.94 23.592 47.332 23.388 47.884C23.196 48.388 22.776 48.64 22.128 48.652C21.84 48.652 21.516 48.628 21.156 48.592L20.772 47.452C21.252 47.488 21.648 47.512 21.984 47.512C22.176 47.5 22.308 47.38 22.368 47.14C22.44 46.864 22.476 46.108 22.5 44.884H20.808C20.748 47.116 20.256 48.904 19.332 50.26L18.384 49.408C19.128 48.316 19.512 46.792 19.548 44.848V40.852H24.492C24.468 40.3 24.468 39.712 24.468 39.112H25.74C25.74 39.724 25.752 40.3 25.776 40.852H27.468C27.168 40.516 26.784 40.156 26.316 39.796L27.108 39.04ZM30.684 43.66H32.988V39.196H34.248V43.66H41.352V44.884H37.584C38.088 46.576 39.396 47.908 41.52 48.88L40.776 50.068C38.352 48.784 36.876 47.056 36.372 44.884H34.248V48.688C35.052 48.484 35.856 48.244 36.648 47.968L36.972 49.144C35.748 49.552 34.452 49.9 33.06 50.212L32.664 49.06C32.88 48.952 32.988 48.772 32.988 48.508V44.884H30.684V43.66ZM39.324 39.256L40.164 40.108C39.204 41.188 37.776 42.148 35.868 43L35.124 42.004C37.008 41.188 38.412 40.276 39.324 39.256Z" fill="#232A49"/>
<path fill-rule="evenodd" clip-rule="evenodd" d="M22.6901 17.1293C22.6901 14.3447 20.4244 12.0789 17.639 12.0789H13.0601V12.5504C13.0601 15.3351 15.3259 17.6009 18.1105 17.6009H20.7768C21.0694 17.6009 21.3069 17.8377 21.3069 18.1309C21.3069 18.4235 21.0694 18.661 20.7768 18.661H18.1105C14.7408 18.661 12 15.9195 12 12.5504V11.5488C12 11.2563 12.2375 11.0188 12.53 11.0188H17.639C21.0088 11.0188 23.7502 13.7603 23.7502 17.1293" fill="#607088"/>
<mask id="mask0_2_3522" style="mask-type:luminance" maskUnits="userSpaceOnUse" x="22" y="6" width="14" height="24">
<path fill-rule="evenodd" clip-rule="evenodd" d="M29.0888 6.67212C25.5477 6.67212 22.6676 9.55222 22.6676 13.0933V28.9447C22.6676 29.2525 22.9169 29.5019 23.2248 29.5019C23.532 29.5019 23.7813 29.2525 23.7813 28.9447V13.0933C23.7813 10.1665 26.1627 7.78585 29.0888 7.78585H33.9017V8.28107C33.9017 11.2078 31.5203 13.5885 28.5936 13.5885H25.7915C25.4836 13.5885 25.2343 13.8386 25.2343 14.1458C25.2343 14.4536 25.4836 14.703 25.7915 14.703H28.5936C32.1347 14.703 35.0161 11.8222 35.0161 8.28107V7.22864C35.0161 6.92078 34.7661 6.67212 34.4596 6.67212H29.0888Z" fill="white"/>
</mask>
<g mask="url(#mask0_2_3522)">
<path fill-rule="evenodd" clip-rule="evenodd" d="M29.0888 6.67212C25.5477 6.67212 22.6676 9.55222 22.6676 13.0933V28.9447C22.6676 29.2525 22.9169 29.5019 23.2248 29.5019C23.532 29.5019 23.7813 29.2525 23.7813 28.9447V13.0933C23.7813 10.1665 26.1627 7.78585 29.0888 7.78585H33.9017V8.28107C33.9017 11.2078 31.5203 13.5885 28.5936 13.5885H25.7915C25.4836 13.5885 25.2343 13.8386 25.2343 14.1458C25.2343 14.4536 25.4836 14.703 25.7915 14.703H28.5936C32.1347 14.703 35.0161 11.8222 35.0161 8.28107V7.22864C35.0161 6.92078 34.7661 6.67212 34.4596 6.67212H29.0888Z" fill="url(#paint0_linear_2_3522)"/>
</g>
</g>
</g>
<defs>
<linearGradient id="paint0_linear_2_3522" x1="22.6673" y1="29.5019" x2="35.0162" y2="29.5019" gradientUnits="userSpaceOnUse">
<stop stop-color="#EBC675"/>
<stop offset="1" stop-color="#D4B179"/>
</linearGradient>
<clipPath id="clip0_2_3522">
<rect width="48" height="53" fill="white"/>
</clipPath>
<clipPath id="clip1_2_3522">
<rect width="48" height="53" fill="white"/>
</clipPath>
</defs>
</svg>
