<svg width="48" height="53" viewBox="0 0 48 53" fill="none" xmlns="http://www.w3.org/2000/svg">
<g clip-path="url(#clip0_2_3534)">
<g clip-path="url(#clip1_2_3534)">
<path d="M7.44 39.16H8.712V42.7C9.672 43.384 10.656 44.164 11.652 45.028L10.872 46.204C10.032 45.328 9.312 44.632 8.712 44.104V50.248H7.44V39.16ZM2.94 43.864C3.528 44.164 4.08 44.524 4.584 44.932C5.04 44.02 5.352 43.012 5.532 41.92H3.492C2.916 43.252 2.16 44.356 1.2 45.232L0.336 44.152C1.668 42.916 2.568 41.248 3.036 39.148L4.296 39.364C4.188 39.832 4.068 40.276 3.936 40.708H6.756V41.824C6.348 45.448 4.596 48.184 1.5 50.032L0.636 48.964C2.052 48.16 3.18 47.152 4.008 45.928C3.432 45.472 2.856 45.112 2.28 44.836L2.94 43.864ZM17.76 48.592H23.364V49.864H16.5V39.532H23.28V40.756H17.76V48.592ZM13.572 39.304C14.508 39.904 15.288 40.492 15.936 41.092L15.048 41.98C14.496 41.428 13.704 40.816 12.684 40.168L13.572 39.304ZM13.344 42.244C14.208 42.82 14.94 43.384 15.54 43.96L14.652 44.86C14.136 44.308 13.404 43.732 12.456 43.108L13.344 42.244ZM14.448 45.82L15.612 46.276C15.084 47.68 14.508 49 13.884 50.224L12.588 49.648C13.308 48.4 13.92 47.128 14.448 45.82ZM25.944 42.868C26.856 43.228 27.684 43.648 28.428 44.152L27.78 45.136C27 44.536 26.196 44.068 25.356 43.732L25.944 42.868ZM27.024 41.236C27.96 41.584 28.812 41.992 29.592 42.472L28.944 43.456C28.128 42.88 27.3 42.436 26.436 42.112L27.024 41.236ZM30.072 41.428H31.308V43.96C31.284 44.5 31.212 45.004 31.104 45.472H35.388V46.696H30.696C30.624 46.828 30.564 46.96 30.492 47.092C32.196 47.788 33.756 48.556 35.172 49.372L34.296 50.332C32.856 49.456 31.38 48.688 29.856 48.016L29.832 48.04C28.956 48.976 27.528 49.708 25.56 50.212L24.852 49.108C26.856 48.604 28.212 47.956 28.908 47.188C29.028 47.032 29.148 46.864 29.256 46.696H24.804V45.472H29.808C29.952 45.004 30.036 44.5 30.072 43.96V41.428ZM25.224 39.736H34.548V40.516C34.368 41.212 34.14 41.92 33.864 42.616L32.7 42.28C32.916 41.872 33.108 41.404 33.252 40.888H25.224V39.736ZM38.148 44.428C39.036 44.716 39.852 45.076 40.596 45.484L40.068 46.288H42.048C42.144 45.964 42.216 45.628 42.252 45.292V43.336H43.464V45.292C43.44 45.64 43.392 45.976 43.32 46.288H47.112V47.476H42.852C42.804 47.548 42.768 47.608 42.732 47.668C44.232 48.1 45.612 48.616 46.86 49.204L46.152 50.296C44.796 49.552 43.416 48.964 42 48.52C41.136 49.264 39.72 49.84 37.752 50.248L37.08 49.18C39.072 48.784 40.404 48.304 41.1 47.728L41.352 47.476H36.984V46.288H39.72C39.012 45.868 38.292 45.544 37.56 45.304L38.148 44.428ZM39.156 43.18C40.056 43.42 40.884 43.732 41.64 44.092L41.016 45.04C40.224 44.62 39.408 44.284 38.568 44.044L39.156 43.18ZM37.116 41.908H41.436V41.104H38.004V39.976H41.436V39.16H42.66V39.976H46.02V41.104H42.66V41.908H46.86V42.688C46.68 43.504 46.44 44.308 46.14 45.1L44.964 44.764C45.204 44.272 45.408 43.696 45.588 43.048H37.116V41.908Z" fill="#232A49"/>
<mask id="mask0_2_3534" style="mask-type:luminance" maskUnits="userSpaceOnUse" x="12" y="6" width="24" height="24">
<path fill-rule="evenodd" clip-rule="evenodd" d="M12.5677 6.60205H35.3742V29.4088H12.5677V6.60205Z" fill="white"/>
</mask>
<g mask="url(#mask0_2_3534)">
<path fill-rule="evenodd" clip-rule="evenodd" d="M23.9711 29.4088C17.6837 29.4088 12.5677 24.2936 12.5677 18.0054C12.5677 11.718 17.6837 6.60205 23.9711 6.60205C25.3767 6.60205 26.7488 6.85489 28.0506 7.35359C28.339 7.46434 28.4825 7.78613 28.3717 8.07379C28.2617 8.36145 27.9364 8.50563 27.6522 8.39489C26.4786 7.94494 25.2395 7.71648 23.9711 7.71648C18.2973 7.71648 13.6822 12.3323 13.6822 18.0054C13.6822 23.6786 18.2973 28.2944 23.9711 28.2944C29.645 28.2944 34.2601 23.6786 34.2601 18.0054C34.2601 15.7585 33.5489 13.6236 32.2033 11.8329C32.0187 11.587 32.0681 11.2374 32.3147 11.0528C32.5606 10.8668 32.9102 10.9177 33.0948 11.1635C34.5861 13.1493 35.3745 15.5154 35.3745 18.0054C35.3745 24.2936 30.2586 29.4088 23.9711 29.4088Z" fill="#607088"/>
</g>
<mask id="mask1_2_3534" style="mask-type:luminance" maskUnits="userSpaceOnUse" x="18" y="13" width="12" height="5">
<path fill-rule="evenodd" clip-rule="evenodd" d="M21.3011 13.5273L18.7616 16.0661C18.6021 16.2263 18.5547 16.4652 18.6411 16.6734C18.7274 16.8817 18.9308 17.0175 19.1565 17.0175H28.7858C29.093 17.0175 29.3438 16.7682 29.3438 16.4603C29.3438 16.1525 29.093 15.9038 28.7858 15.9038H20.5015L22.0888 14.3157C22.3068 14.0977 22.3068 13.7453 22.0888 13.5273C21.9802 13.4193 21.8374 13.365 21.6953 13.365C21.5525 13.365 21.4104 13.4193 21.3011 13.5273Z" fill="white"/>
</mask>
<g mask="url(#mask1_2_3534)">
<path fill-rule="evenodd" clip-rule="evenodd" d="M21.3011 13.5273L18.7616 16.0661C18.6021 16.2263 18.5547 16.4652 18.6411 16.6734C18.7274 16.8817 18.9308 17.0175 19.1565 17.0175H28.7858C29.093 17.0175 29.3438 16.7682 29.3438 16.4603C29.3438 16.1525 29.093 15.9038 28.7858 15.9038H20.5015L22.0888 14.3157C22.3068 14.0977 22.3068 13.7453 22.0888 13.5273C21.9802 13.4193 21.8374 13.365 21.6953 13.365C21.5525 13.365 21.4104 13.4193 21.3011 13.5273Z" fill="url(#paint0_linear_2_3534)"/>
</g>
<mask id="mask2_2_3534" style="mask-type:luminance" maskUnits="userSpaceOnUse" x="18" y="18" width="12" height="5">
<path fill-rule="evenodd" clip-rule="evenodd" d="M19.1565 18.9935C18.8487 18.9935 18.5993 19.2429 18.5993 19.5507C18.5993 19.8586 18.8487 20.108 19.1565 20.108H27.4409L25.8528 21.6953C25.6355 21.9126 25.6355 22.2658 25.8528 22.4831C25.9622 22.5924 26.1043 22.6468 26.2464 22.6468C26.3899 22.6468 26.5319 22.5924 26.6413 22.4838L29.1801 19.945C29.3396 19.7855 29.387 19.5459 29.3006 19.3376C29.2149 19.1294 29.0108 18.9935 28.7859 18.9935H19.1565Z" fill="white"/>
</mask>
<g mask="url(#mask2_2_3534)">
<path fill-rule="evenodd" clip-rule="evenodd" d="M19.1565 18.9935C18.8487 18.9935 18.5993 19.2429 18.5993 19.5507C18.5993 19.8586 18.8487 20.108 19.1565 20.108H27.4409L25.8528 21.6953C25.6355 21.9126 25.6355 22.2658 25.8528 22.4831C25.9622 22.5924 26.1043 22.6468 26.2464 22.6468C26.3899 22.6468 26.5319 22.5924 26.6413 22.4838L29.1801 19.945C29.3396 19.7855 29.387 19.5459 29.3006 19.3376C29.2149 19.1294 29.0108 18.9935 28.7859 18.9935H19.1565Z" fill="url(#paint1_linear_2_3534)"/>
</g>
</g>
</g>
<defs>
<linearGradient id="paint0_linear_2_3534" x1="18.5986" y1="17.0174" x2="29.3432" y2="17.0174" gradientUnits="userSpaceOnUse">
<stop stop-color="#EBC675"/>
<stop offset="1" stop-color="#D4B179"/>
</linearGradient>
<linearGradient id="paint1_linear_2_3534" x1="18.5989" y1="22.647" x2="29.3436" y2="22.647" gradientUnits="userSpaceOnUse">
<stop stop-color="#EBC675"/>
<stop offset="1" stop-color="#D4B179"/>
</linearGradient>
<clipPath id="clip0_2_3534">
<rect width="48" height="53" fill="white"/>
</clipPath>
<clipPath id="clip1_2_3534">
<rect width="48" height="53" fill="white"/>
</clipPath>
</defs>
</svg>
