<svg width="48" height="53" viewBox="0 0 48 53" fill="none" xmlns="http://www.w3.org/2000/svg">
<g clip-path="url(#clip0_2_3526)">
<g clip-path="url(#clip1_2_3526)">
<path d="M6.132 44.596V45.868C5.496 46.084 4.836 46.276 4.14 46.456V48.892C4.14 49.684 3.72 50.092 2.88 50.092H1.524L1.248 48.904C1.668 48.952 2.064 48.976 2.448 48.976C2.724 48.976 2.868 48.832 2.868 48.568V46.756C2.172 46.9 1.464 47.032 0.72 47.152L0.54 45.892C1.356 45.772 2.136 45.628 2.868 45.472V43.408H0.528V42.208H2.868V41.092C2.292 41.212 1.704 41.308 1.08 41.392L0.816 40.204C2.472 40.024 3.96 39.676 5.256 39.148L5.688 40.324C5.196 40.504 4.68 40.66 4.14 40.804V42.208H6.6C6.528 41.284 6.504 40.264 6.504 39.16H7.764C7.776 40.312 7.812 41.32 7.884 42.208H11.472V43.408H7.98C8.052 44.188 8.16 44.824 8.292 45.328C8.34 45.52 8.388 45.688 8.436 45.856C8.928 45.244 9.36 44.56 9.72 43.816L10.8 44.392C10.272 45.472 9.636 46.42 8.904 47.212C9.024 47.5 9.156 47.752 9.288 47.944C9.624 48.472 9.888 48.736 10.056 48.736C10.188 48.736 10.32 48.124 10.464 46.924L11.58 47.512C11.268 49.228 10.824 50.092 10.236 50.092C9.708 50.092 9.156 49.732 8.592 49.024C8.376 48.748 8.172 48.436 7.992 48.076C7.176 48.748 6.264 49.276 5.268 49.66L4.572 48.592C5.676 48.184 6.648 47.608 7.476 46.864C7.344 46.48 7.224 46.084 7.116 45.676C6.936 45.028 6.804 44.272 6.708 43.408H4.14V45.184C4.836 45.004 5.508 44.812 6.132 44.596ZM9.084 39.268C9.924 39.796 10.644 40.324 11.244 40.852L10.344 41.752C9.852 41.224 9.156 40.672 8.244 40.072L9.084 39.268ZM12.648 39.52H23.352V40.648H19.944V41.44H22.644V44.68H17.76L17.328 45.436H23.496V46.588H21.012C20.784 47.188 20.412 47.704 19.908 48.16C21.036 48.496 22.176 48.88 23.352 49.324L22.572 50.356C21.312 49.828 20.052 49.348 18.792 48.94C17.664 49.516 15.828 49.972 13.26 50.32L12.792 49.192C14.616 49 16.044 48.736 17.1 48.412C16.2 48.148 15.312 47.92 14.424 47.716C14.688 47.332 14.94 46.96 15.18 46.588H12.492V45.436H15.9C16.044 45.172 16.2 44.92 16.344 44.68H13.356V41.44H16.056V40.648H12.648V39.52ZM18.564 47.776C19.092 47.44 19.476 47.044 19.716 46.588H16.62C16.464 46.816 16.32 47.02 16.2 47.212C16.968 47.368 17.76 47.56 18.564 47.776ZM18.756 41.44V40.648H17.244V41.44H18.756ZM21.444 43.624V42.496H19.944V43.624H21.444ZM18.756 43.624V42.496H17.244V43.624H18.756ZM16.056 43.624V42.496H14.556V43.624H16.056ZM26.352 41.932C25.932 42.208 25.476 42.472 24.984 42.724L24.612 41.5C26.016 40.828 27.06 40.036 27.744 39.124L28.776 39.616C28.464 40.108 28.056 40.576 27.576 41.008V43.876H26.352V41.932ZM34.776 40.156L34.968 41.284L31.824 41.848C31.848 41.872 31.872 41.908 31.896 41.932C32.412 42.508 32.976 42.808 33.588 42.82C33.696 42.82 33.78 42.76 33.852 42.64C33.948 42.448 34.02 42.136 34.092 41.716L35.292 42.22C35.1 42.952 34.896 43.432 34.704 43.648C34.512 43.864 34.236 43.984 33.888 43.984C32.892 43.984 32.004 43.624 31.236 42.904C30.984 42.664 30.756 42.388 30.552 42.076L28.044 42.52L27.864 41.404L29.988 41.02C29.748 40.492 29.544 39.916 29.364 39.268L30.684 39.136C30.828 39.784 30.996 40.336 31.2 40.804L32.82 40.516C32.532 40.252 32.136 39.988 31.632 39.724L32.34 39.028C32.844 39.304 33.276 39.58 33.624 39.856L32.988 40.48L34.776 40.156ZM34.092 44.188V47.932H32.82V45.316H27.432V48.064H26.172V44.188H34.092ZM30.996 47.764C32.52 48.172 33.912 48.652 35.184 49.204L34.476 50.296C33.144 49.624 31.776 49.096 30.36 48.712L30.996 47.764ZM29.52 45.64L30.732 45.748C30.564 47.344 30.204 48.4 29.652 48.904C29.064 49.564 27.636 49.984 25.368 50.176L24.876 49.048C26.772 48.964 28.008 48.664 28.608 48.16C29.136 47.68 29.436 46.84 29.52 45.64ZM36.54 40.132H38.952V39.148H40.128V40.132H42.204V41.212H40.128V41.92H41.928V42.964H36.96V41.92H38.952V41.212H36.54V40.132ZM37.356 43.612H41.556V44.692H37.356V43.612ZM36.624 45.292H42.336V46.372H40.116V49.096C40.116 49.84 39.708 50.224 38.892 50.224H37.92L37.668 49.096C37.956 49.144 38.232 49.168 38.496 49.168C38.784 49.168 38.94 49.036 38.94 48.796V46.372H36.624V45.292ZM37.392 46.756L38.376 46.96C38.112 47.872 37.752 48.664 37.284 49.324L36.36 48.736C36.852 48.112 37.2 47.452 37.392 46.756ZM41.484 46.636C41.748 47.176 41.988 47.752 42.204 48.364L41.244 48.796C41.016 48.1 40.776 47.488 40.512 46.96L41.484 46.636ZM43.176 39.196L44.316 39.388C44.244 39.94 44.172 40.444 44.076 40.912H47.172V41.668C47.016 42.676 46.824 43.672 46.584 44.68L45.432 44.356C45.648 43.696 45.828 42.916 45.972 42.028H43.824C43.548 43.012 43.2 43.804 42.792 44.38L41.844 43.696C42.528 42.616 42.972 41.116 43.176 39.196ZM44.016 42.832H45.144C45.144 43.624 45.108 44.368 45.036 45.04C45.528 46.804 46.38 48.22 47.604 49.288L46.776 50.248C45.876 49.336 45.168 48.256 44.664 47.008C44.28 48.328 43.464 49.42 42.204 50.308L41.448 49.396C42.552 48.604 43.272 47.656 43.608 46.528C43.872 45.58 44.004 44.344 44.016 42.832Z" fill="#232A49"/>
<path fill-rule="evenodd" clip-rule="evenodd" d="M16.5913 30.0747C16.3893 30.0747 16.1943 29.9646 16.0954 29.7724C15.9547 29.4986 16.062 29.1629 16.3357 29.0222L19.5181 27.3819C20.0509 27.1061 20.6625 27.0483 21.2378 27.2162L26.6504 28.8014C27.7251 29.1156 28.8821 28.8767 29.745 28.1599L34.5266 24.1856C34.8603 23.9084 34.9202 23.4174 34.6631 23.0684C34.4103 22.725 33.9436 22.6338 33.5787 22.8539L29.0283 25.6086C28.5018 25.9276 27.8617 26.0049 27.2724 25.8182L24.5434 24.956C24.3164 24.8842 24.1597 24.6753 24.1541 24.4371C24.1492 24.1981 24.2962 23.9829 24.5205 23.9014L26.9248 23.0224C27.31 22.8817 27.5684 22.5119 27.5684 22.1016C27.5684 21.5611 27.1282 21.1216 26.5884 21.1216H20.1226L13.3093 24.3583C13.0293 24.4914 12.6978 24.3716 12.5668 24.0944C12.4345 23.8165 12.5529 23.4842 12.8308 23.3519L19.7577 20.0615C19.8322 20.026 19.9144 20.0072 19.9973 20.0072H26.5884C27.7432 20.0072 28.6822 20.9468 28.6822 22.1016C28.6822 22.9785 28.1291 23.7684 27.3072 24.0686L26.4394 24.3862L27.6081 24.7561C27.8909 24.8452 28.1981 24.8083 28.4516 24.6551L33.002 21.9003C33.8615 21.38 34.962 21.5967 35.5596 22.4067C36.1669 23.2314 36.0262 24.389 35.2392 25.043L30.4576 29.0167C29.309 29.9716 27.7697 30.2892 26.3377 29.8706L20.925 28.286C20.6269 28.1996 20.3072 28.2289 20.0293 28.3724L16.8455 30.0127C16.764 30.0545 16.677 30.0747 16.5913 30.0747Z" fill="#607088"/>
<path fill-rule="evenodd" clip-rule="evenodd" d="M34.0954 19.9639C34.0327 19.9639 33.9693 19.9535 33.9074 19.9312C33.6176 19.8274 33.4672 19.5084 33.5709 19.2187C33.9352 18.2017 34.1198 17.134 34.1198 16.0453C34.1198 10.8577 29.8996 6.63677 24.7112 6.63677C19.5236 6.63677 15.3034 10.8577 15.3034 16.0453C15.3034 17.134 15.488 18.2017 15.8522 19.2187C15.956 19.5084 15.8049 19.8274 15.5151 19.9312C15.2268 20.0357 14.9064 19.8845 14.8033 19.5941C14.3958 18.4567 14.1889 17.2628 14.1889 16.0453C14.1889 10.2426 18.9092 5.52234 24.7112 5.52234C30.5132 5.52234 35.2342 10.2426 35.2342 16.0453C35.2342 17.2628 35.0274 18.4567 34.6199 19.5941C34.5384 19.8218 34.3239 19.9639 34.0954 19.9639Z" fill="#607088"/>
<mask id="mask0_2_3526" style="mask-type:luminance" maskUnits="userSpaceOnUse" x="20" y="10" width="9" height="9">
<path fill-rule="evenodd" clip-rule="evenodd" d="M24.3179 11.1063L21.0784 14.3452C20.8604 14.5625 20.8604 14.9156 21.0784 15.1329L24.3179 18.3724C24.4266 18.4811 24.5687 18.5354 24.7114 18.5354C24.8542 18.5354 24.9963 18.4811 25.105 18.3724L28.3445 15.1329C28.5618 14.9156 28.5618 14.5625 28.3445 14.3452L25.105 11.1063C24.9963 10.9977 24.8542 10.9434 24.7114 10.9434C24.5694 10.9434 24.4266 10.9977 24.3179 11.1063ZM22.2604 14.7394L24.7114 12.2883L27.1618 14.7394L24.7114 17.1904L22.2604 14.7394Z" fill="white"/>
</mask>
<g mask="url(#mask0_2_3526)">
<path fill-rule="evenodd" clip-rule="evenodd" d="M24.3179 11.1063L21.0784 14.3452C20.8604 14.5625 20.8604 14.9156 21.0784 15.1329L24.3179 18.3724C24.4266 18.4811 24.5687 18.5354 24.7114 18.5354C24.8542 18.5354 24.9963 18.4811 25.105 18.3724L28.3445 15.1329C28.5618 14.9156 28.5618 14.5625 28.3445 14.3452L25.105 11.1063C24.9963 10.9977 24.8542 10.9434 24.7114 10.9434C24.5694 10.9434 24.4266 10.9977 24.3179 11.1063ZM22.2604 14.7394L24.7114 12.2883L27.1618 14.7394L24.7114 17.1904L22.2604 14.7394Z" fill="url(#paint0_linear_2_3526)"/>
</g>
</g>
</g>
<defs>
<linearGradient id="paint0_linear_2_3526" x1="20.9153" y1="18.5353" x2="28.5076" y2="18.5353" gradientUnits="userSpaceOnUse">
<stop stop-color="#EBC675"/>
<stop offset="1" stop-color="#D4B179"/>
</linearGradient>
<clipPath id="clip0_2_3526">
<rect width="48" height="53" fill="white"/>
</clipPath>
<clipPath id="clip1_2_3526">
<rect width="48" height="53" fill="white"/>
</clipPath>
</defs>
</svg>
