<svg width="48" height="53" viewBox="0 0 48 53" fill="none" xmlns="http://www.w3.org/2000/svg">
<g clip-path="url(#clip0_2_3502)">
<g clip-path="url(#clip1_2_3502)">
<path d="M4.848 39.52H10.992V45.34H8.556V46.444H11.136V47.608H8.556V48.724H11.544V49.936H4.26V48.724H7.308V47.608H4.716V46.444H7.308V45.34H4.848V39.52ZM9.792 44.236V42.964H8.556V44.236H9.792ZM7.308 44.236V42.964H6.048V44.236H7.308ZM6.048 41.896H7.308V40.624H6.048V41.896ZM8.556 40.624V41.896H9.792V40.624H8.556ZM0.732 43.456H1.872V41.008H0.552V39.82H4.452V41.008H3.144V43.456H4.308V44.656H3.144V46.924C3.528 46.792 3.9 46.648 4.272 46.492V47.704C3.168 48.136 1.992 48.496 0.744 48.796L0.432 47.596C0.924 47.512 1.404 47.416 1.872 47.296V44.656H0.732V43.456ZM20.604 42.568H17.952V41.404H21.012V39.148H22.212V41.404H23.46V42.568H22.212V48.784C22.212 49.672 21.828 50.128 21.084 50.128H19.512L19.236 48.94C19.728 48.988 20.196 49.012 20.652 49.012C20.892 49.012 21.012 48.832 21.012 48.472V44.092C20.316 45.868 19.332 47.38 18.06 48.628L17.364 47.5C18.84 46.204 19.92 44.56 20.604 42.568ZM17.4 39.52V47.212H16.284V40.672H14.04V47.212H12.912V39.52H17.4ZM14.652 41.38H15.708V45.304C15.66 46.648 15.432 47.728 15.012 48.532C14.604 49.288 13.932 49.876 13.02 50.284L12.348 49.228C13.236 48.832 13.836 48.34 14.148 47.764C14.448 47.128 14.616 46.312 14.652 45.304V41.38ZM16.176 47.524C16.824 48.088 17.364 48.64 17.808 49.192L16.932 50.068C16.572 49.516 16.056 48.916 15.396 48.292L16.176 47.524ZM30.204 39.004C30.372 39.376 30.528 39.796 30.672 40.264H34.812V41.452H32.82C32.7 41.956 32.544 42.436 32.352 42.916H35.064V44.128H26.592V45.688C26.544 47.572 26.124 49.084 25.308 50.224L24.36 49.372C24.972 48.484 25.296 47.26 25.32 45.688V42.916H27.732L27.336 41.452H25.224V40.264H29.388C29.232 39.88 29.064 39.532 28.884 39.22L30.204 39.004ZM28.968 42.916H31.14C31.344 42.436 31.5 41.956 31.62 41.452H28.572L28.968 42.916ZM38.556 39.52H45.456V43.804H38.556V39.52ZM44.196 42.628V40.696H39.816V42.628H44.196ZM41.46 44.596V50.068H40.248V49.504H38.16V50.068H36.936V44.596H41.46ZM38.16 48.34H40.248V45.772H38.16V48.34ZM47.064 44.596V50.068H45.816V49.504H43.62V50.068H42.396V44.596H47.064ZM43.62 48.34H45.816V45.772H43.62V48.34Z" fill="#232A49"/>
<path fill-rule="evenodd" clip-rule="evenodd" d="M23.9798 6.04742C22.5233 6.04742 21.7955 6.72862 21.2048 7.3715C21.1212 7.32553 21.03 7.27678 20.9353 7.22732C20.4401 6.97031 19.8605 6.76553 19.2894 6.76553C19.1515 6.76553 19.0143 6.77737 18.8792 6.80384C18.0635 6.95986 17.5934 7.6717 17.5934 8.47757C17.5934 9.65956 18.4208 10.6653 19.4085 11.3932C19.9163 11.7665 20.4658 12.066 20.9673 12.2792C21.9884 12.7124 23.0994 12.92 24.2068 12.92C25.8415 12.92 27.4609 12.3398 28.7328 11.3138C29.7852 10.4647 31.5147 8.53469 30.1161 7.25031C29.71 6.87698 29.1695 6.79409 28.6374 6.79409C28.4493 6.79409 28.2619 6.81429 28.0739 6.85538C27.7012 6.93688 27.3293 7.09847 26.9615 7.33946C26.6725 7.01698 26.3514 6.75509 25.9983 6.5524C25.4118 6.21668 24.7369 6.04742 23.9798 6.04742ZM23.9798 7.16185C24.5446 7.16185 25.0238 7.27887 25.4445 7.51986C25.6925 7.66195 25.9237 7.8514 26.1313 8.08265L26.77 8.79658L27.5717 8.2721C27.8245 8.10633 28.0732 7.99628 28.3114 7.94474C28.4207 7.92036 28.5301 7.90852 28.6374 7.90852C29.0058 7.90852 29.2433 7.96145 29.3624 8.0715C29.5178 8.21359 29.5282 8.3118 29.5254 8.40026C29.5094 8.8927 28.8679 9.7724 28.0328 10.4466C26.9462 11.3228 25.588 11.8055 24.2068 11.8055C23.2247 11.8055 22.2552 11.6147 21.4026 11.2532C21.076 11.1146 20.5787 10.8708 20.0695 10.4954C19.561 10.1214 18.7078 9.36145 18.7078 8.47757C18.7078 8.35847 18.7357 7.96563 19.0888 7.89807C19.1508 7.88623 19.2184 7.87996 19.2894 7.87996C19.6063 7.87996 19.9978 7.99628 20.4212 8.21638C20.509 8.26235 20.594 8.30693 20.6713 8.34941L21.4361 8.76732L22.026 8.12514C22.5442 7.56096 22.9872 7.16185 23.9798 7.16185Z" fill="#607088"/>
<path fill-rule="evenodd" clip-rule="evenodd" d="M24.0469 29.3106H23.9745C20.8213 29.3106 18.1453 28.9741 16.2355 28.3368C15.1085 27.9607 14.2169 27.4711 13.5859 26.8818C12.8051 26.1505 12.4095 25.2791 12.4095 24.2915C12.4095 23.7565 12.53 23.2467 12.7689 22.7737C12.7452 22.2305 12.7772 21.6865 12.8058 21.2017C12.8406 20.6097 12.9005 20.0336 12.9827 19.4918C13.0635 18.9561 13.1701 18.4282 13.2982 17.9246L13.3233 17.8257C13.4355 17.3904 13.5608 16.8958 13.7656 16.4515C13.9077 16.1415 14.0519 15.849 14.1967 15.5738C14.3395 15.3022 14.6753 15.1963 14.949 15.3398C15.222 15.4833 15.3265 15.8197 15.183 16.0921C15.0479 16.3505 14.9121 16.6249 14.7783 16.9167C14.6154 17.2699 14.5081 17.6926 14.4036 18.1008L14.3785 18.2004C14.2587 18.6685 14.1605 19.1588 14.0846 19.6589C14.0073 20.1681 13.9516 20.7086 13.9188 21.2679C13.8889 21.7687 13.8555 22.3356 13.8896 22.8636C13.8965 22.9716 13.8715 23.0795 13.8178 23.1742C13.6228 23.519 13.5239 23.8944 13.5239 24.2915C13.5239 24.9685 13.7928 25.5494 14.3472 26.0676C14.8605 26.5468 15.6142 26.9549 16.5879 27.2795C18.3856 27.8792 20.9397 28.1961 23.9745 28.1961H24.0469C27.0802 28.1961 29.6344 27.8792 31.4328 27.2795C32.4072 26.9542 33.1615 26.5468 33.6728 26.0676C34.2279 25.5494 34.4974 24.9685 34.4974 24.2915C34.4974 23.8944 34.3978 23.519 34.2028 23.1742C34.1485 23.0795 34.1241 22.9702 34.1318 22.8615C34.138 22.7549 34.1415 22.6456 34.1415 22.5348C34.1415 21.6948 34.0942 20.882 33.9994 20.1179C33.8532 18.9373 33.5934 17.8487 33.2284 16.8819C32.1035 14.442 30.9069 13.2335 30.1031 12.6561C29.8726 12.4904 29.5786 12.498 29.3725 12.6722C27.1555 14.5479 24.072 15.1991 21.5185 14.3285C20.5051 13.983 19.539 13.4258 18.6489 12.6722C18.442 12.4973 18.1488 12.4904 17.9175 12.6561C17.501 12.9556 17.0831 13.3506 16.677 13.8298C16.4771 14.0652 16.1254 14.0924 15.8914 13.8945C15.6566 13.696 15.6281 13.3443 15.8266 13.1096C16.2919 12.5607 16.7766 12.1038 17.2677 11.7514C17.9106 11.2896 18.775 11.3188 19.3684 11.821C20.1527 12.4848 20.9968 12.973 21.8779 13.2739C24.0685 14.0192 26.7278 13.4502 28.6523 11.821C29.2464 11.3181 30.1094 11.2889 30.7537 11.7514C31.6661 12.4075 33.0146 13.7552 34.2551 16.4515C34.6674 17.5373 34.9481 18.713 35.1055 19.9807C35.2058 20.7908 35.256 21.6496 35.256 22.5348C35.256 22.6149 35.2546 22.6943 35.2518 22.773C35.4907 23.246 35.6119 23.7558 35.6119 24.2915C35.6119 25.2798 35.2156 26.1512 34.4341 26.8818C33.8051 27.4704 32.9129 27.9607 31.7845 28.3368C29.8747 28.9741 27.1986 29.3106 24.0469 29.3106Z" fill="#607088"/>
<mask id="mask0_2_3502" style="mask-type:luminance" maskUnits="userSpaceOnUse" x="20" y="17" width="8" height="9">
<path fill-rule="evenodd" clip-rule="evenodd" d="M25.4874 17.2383L24.0101 18.8076L22.5327 17.2383C22.3217 17.0134 21.97 17.0043 21.745 17.2146C21.5214 17.425 21.511 17.7781 21.722 18.0024L22.7208 19.0632H21.224C20.9161 19.0632 20.6668 19.3119 20.6668 19.6197C20.6668 19.9276 20.9161 20.1769 21.224 20.1769H23.4535V21.4913H21.224C20.9161 21.4913 20.6668 21.7406 20.6668 22.0485C20.6668 22.3563 20.9161 22.6057 21.224 22.6057H23.4535V24.8847C23.4535 25.1926 23.7029 25.4419 24.0101 25.4419C24.3179 25.4419 24.5673 25.1926 24.5673 24.8847V22.6057H26.7968C27.104 22.6057 27.354 22.3563 27.354 22.0485C27.354 21.7406 27.104 21.4913 26.7968 21.4913H24.5673V20.1769H26.7968C27.104 20.1769 27.354 19.9276 27.354 19.6197C27.354 19.3119 27.104 19.0632 26.7968 19.0632H25.2993L26.2981 18.0024C26.5099 17.7781 26.4994 17.425 26.2751 17.2146C26.1672 17.1137 26.0293 17.0628 25.8927 17.0628C25.7451 17.0628 25.5974 17.1213 25.4874 17.2383Z" fill="white"/>
</mask>
<g mask="url(#mask0_2_3502)">
<path fill-rule="evenodd" clip-rule="evenodd" d="M25.4874 17.2383L24.0101 18.8076L22.5327 17.2383C22.3217 17.0134 21.97 17.0043 21.745 17.2146C21.5214 17.425 21.511 17.7781 21.722 18.0024L22.7208 19.0632H21.224C20.9161 19.0632 20.6668 19.3119 20.6668 19.6197C20.6668 19.9276 20.9161 20.1769 21.224 20.1769H23.4535V21.4913H21.224C20.9161 21.4913 20.6668 21.7406 20.6668 22.0485C20.6668 22.3563 20.9161 22.6057 21.224 22.6057H23.4535V24.8847C23.4535 25.1926 23.7029 25.4419 24.0101 25.4419C24.3179 25.4419 24.5673 25.1926 24.5673 24.8847V22.6057H26.7968C27.104 22.6057 27.354 22.3563 27.354 22.0485C27.354 21.7406 27.104 21.4913 26.7968 21.4913H24.5673V20.1769H26.7968C27.104 20.1769 27.354 19.9276 27.354 19.6197C27.354 19.3119 27.104 19.0632 26.7968 19.0632H25.2993L26.2981 18.0024C26.5099 17.7781 26.4994 17.425 26.2751 17.2146C26.1672 17.1137 26.0293 17.0628 25.8927 17.0628C25.7451 17.0628 25.5974 17.1213 25.4874 17.2383Z" fill="url(#paint0_linear_2_3502)"/>
</g>
</g>
</g>
<defs>
<linearGradient id="paint0_linear_2_3502" x1="20.667" y1="25.442" x2="27.354" y2="25.442" gradientUnits="userSpaceOnUse">
<stop stop-color="#EBC675"/>
<stop offset="1" stop-color="#D4B179"/>
</linearGradient>
<clipPath id="clip0_2_3502">
<rect width="48" height="53" fill="white"/>
</clipPath>
<clipPath id="clip1_2_3502">
<rect width="48" height="53" fill="white"/>
</clipPath>
</defs>
</svg>
