<svg width="48" height="53" viewBox="0 0 48 53" fill="none" xmlns="http://www.w3.org/2000/svg">
<g clip-path="url(#clip0_2_3530)">
<g clip-path="url(#clip1_2_3530)">
<path d="M6.888 43.252H11.124C11.244 42.532 11.328 41.752 11.388 40.888H7.212V39.688H16.788V40.888H12.66C12.588 41.764 12.504 42.556 12.396 43.252H17.148V44.464H12.948C13.788 46.552 15.324 48.16 17.556 49.3L16.764 50.332C14.472 49.072 12.888 47.32 12 45.064C11.808 45.664 11.604 46.18 11.364 46.612C10.56 48.04 9.192 49.276 7.272 50.332L6.468 49.3C8.22 48.4 9.456 47.332 10.188 46.108C10.452 45.664 10.668 45.112 10.848 44.464H6.888V43.252ZM18.888 43.252H23.124C23.244 42.532 23.328 41.752 23.388 40.888H19.212V39.688H28.788V40.888H24.66C24.588 41.764 24.504 42.556 24.396 43.252H29.148V44.464H24.948C25.788 46.552 27.324 48.16 29.556 49.3L28.764 50.332C26.472 49.072 24.888 47.32 24 45.064C23.808 45.664 23.604 46.18 23.364 46.612C22.56 48.04 21.192 49.276 19.272 50.332L18.468 49.3C20.22 48.4 21.456 47.332 22.188 46.108C22.452 45.664 22.668 45.112 22.848 44.464H18.888V43.252ZM35.352 43.852H32.052V42.844H30.96V40.24H35.364C35.256 39.928 35.136 39.64 35.004 39.376L36.348 39.16C36.48 39.484 36.6 39.844 36.72 40.24H41.016V42.82H39.972V43.852H36.624V45.532H39.576V46.708H36.624V48.856H38.796C38.508 48.412 38.16 47.932 37.74 47.416L38.688 46.828C39.216 47.44 39.636 47.98 39.936 48.436L39.324 48.856H41.04V50.02H30.948V48.856H35.352V46.708H32.328V45.532H35.352V43.852ZM32.232 42.676H39.756V41.452H32.232V42.676Z" fill="#232A49"/>
<path fill-rule="evenodd" clip-rule="evenodd" d="M33.8855 28.0852H13.7101C12.2161 28.0852 11 26.8691 11 25.3744V21.1214C11 20.8143 11.2494 20.5649 11.5565 20.5649C11.8644 20.5649 12.1137 20.8143 12.1137 21.1214V25.3744C12.1137 26.2548 12.8304 26.9708 13.7101 26.9708H33.8855C34.7659 26.9708 35.4819 26.2548 35.4819 25.3744V12.3042C35.4819 11.4245 34.7659 10.7078 33.8855 10.7078H13.7101C12.8304 10.7078 12.1137 11.4245 12.1137 12.3042V16.5084C12.1137 16.8162 11.8644 17.0656 11.5565 17.0656C11.2494 17.0656 11 16.8162 11 16.5084V12.3042C11 10.8095 12.2161 9.59406 13.7101 9.59406H33.8855C35.3802 9.59406 36.5963 10.8095 36.5963 12.3042V25.3744C36.5963 26.8691 35.3802 28.0852 33.8855 28.0852Z" fill="#607088"/>
<mask id="mask0_2_3530" style="mask-type:luminance" maskUnits="userSpaceOnUse" x="19" y="14" width="9" height="11">
<path fill-rule="evenodd" clip-rule="evenodd" d="M21.1051 14.4562C20.8809 14.6666 20.8697 15.0197 21.0815 15.244L22.5086 16.7596H20.378C20.0701 16.7596 19.8208 17.009 19.8208 17.3168C19.8208 17.6247 20.0701 17.874 20.378 17.874H23.2414V19.7407H20.378C20.0701 19.7407 19.8208 19.9901 19.8208 20.2979C19.8208 20.6058 20.0701 20.8544 20.378 20.8544H23.2414V23.7791C23.2414 24.087 23.4907 24.3363 23.7979 24.3363C24.1057 24.3363 24.3551 24.087 24.3551 23.7791V20.8544H27.2178C27.5256 20.8544 27.7757 20.6058 27.7757 20.2979C27.7757 19.9901 27.5256 19.7407 27.2178 19.7407H24.3551V17.874H27.2178C27.5256 17.874 27.7757 17.6247 27.7757 17.3168C27.7757 17.009 27.5256 16.7596 27.2178 16.7596H25.0878L26.515 15.244C26.726 15.0197 26.7149 14.6666 26.4906 14.4562C26.267 14.2452 25.9146 14.2556 25.7028 14.4799L23.7979 16.5033L21.8922 14.4799C21.7828 14.3629 21.6352 14.3044 21.4875 14.3044C21.3503 14.3044 21.2131 14.3545 21.1051 14.4562Z" fill="white"/>
</mask>
<g mask="url(#mask0_2_3530)">
<path fill-rule="evenodd" clip-rule="evenodd" d="M21.1051 14.4562C20.8809 14.6666 20.8697 15.0197 21.0815 15.244L22.5086 16.7596H20.378C20.0701 16.7596 19.8208 17.009 19.8208 17.3168C19.8208 17.6247 20.0701 17.874 20.378 17.874H23.2414V19.7407H20.378C20.0701 19.7407 19.8208 19.9901 19.8208 20.2979C19.8208 20.6058 20.0701 20.8544 20.378 20.8544H23.2414V23.7791C23.2414 24.087 23.4907 24.3363 23.7979 24.3363C24.1057 24.3363 24.3551 24.087 24.3551 23.7791V20.8544H27.2178C27.5256 20.8544 27.7757 20.6058 27.7757 20.2979C27.7757 19.9901 27.5256 19.7407 27.2178 19.7407H24.3551V17.874H27.2178C27.5256 17.874 27.7757 17.6247 27.7757 17.3168C27.7757 17.009 27.5256 16.7596 27.2178 16.7596H25.0878L26.515 15.244C26.726 15.0197 26.7149 14.6666 26.4906 14.4562C26.267 14.2452 25.9146 14.2556 25.7028 14.4799L23.7979 16.5033L21.8922 14.4799C21.7828 14.3629 21.6352 14.3044 21.4875 14.3044C21.3503 14.3044 21.2131 14.3545 21.1051 14.4562Z" fill="url(#paint0_linear_2_3530)"/>
</g>
<path fill-rule="evenodd" clip-rule="evenodd" d="M29.5384 13.3304C29.2312 13.3304 28.9811 13.0811 28.9811 12.7732V8.55652C28.9811 8.24935 29.2312 8 29.5384 8C29.8455 8 30.0956 8.24935 30.0956 8.55652V12.7732C30.0956 13.0811 29.8455 13.3304 29.5384 13.3304Z" fill="#607088"/>
<path fill-rule="evenodd" clip-rule="evenodd" d="M18.0574 13.3304C17.7502 13.3304 17.5002 13.0811 17.5002 12.7732V8.55652C17.5002 8.24935 17.7502 8 18.0574 8C18.3646 8 18.6146 8.24935 18.6146 8.55652V12.7732C18.6146 13.0811 18.3646 13.3304 18.0574 13.3304Z" fill="#607088"/>
</g>
</g>
<defs>
<linearGradient id="paint0_linear_2_3530" x1="19.8204" y1="24.3363" x2="27.7753" y2="24.3363" gradientUnits="userSpaceOnUse">
<stop stop-color="#EBC675"/>
<stop offset="1" stop-color="#D4B179"/>
</linearGradient>
<clipPath id="clip0_2_3530">
<rect width="48" height="53" fill="white"/>
</clipPath>
<clipPath id="clip1_2_3530">
<rect width="48" height="53" fill="white"/>
</clipPath>
</defs>
</svg>
