<svg width="48" height="53" viewBox="0 0 48 53" fill="none" xmlns="http://www.w3.org/2000/svg">
<g clip-path="url(#clip0_2_3518)">
<g clip-path="url(#clip1_2_3518)">
<path d="M3.036 42.424C2.568 43.48 1.968 44.38 1.236 45.1L0.408 44.056C1.488 42.928 2.208 41.416 2.58 39.508L3.864 39.748C3.756 40.264 3.636 40.756 3.492 41.212H5.58V39.244H6.84V41.212H10.644V42.424H6.84V44.776H10.416V45.988H6.84V48.604H11.424V49.852H0.744V48.604H5.58V45.988H2.196V44.776H5.58V42.424H3.036ZM15.624 42.52H18.912V41.02C18.072 41.092 17.172 41.128 16.224 41.128L15.84 40C18.432 40 20.616 39.712 22.404 39.148L23.028 40.204C22.212 40.492 21.264 40.72 20.184 40.876V42.52H23.496V43.72H20.184V45.148H22.8V50.248H21.564V49.684H17.628V50.248H16.392V45.148H18.912V43.72H15.624V42.52ZM17.628 48.508H21.564V46.324H17.628V48.508ZM13.656 39.244C14.448 39.76 15.132 40.288 15.696 40.816L14.844 41.656C14.364 41.164 13.692 40.624 12.804 40.048L13.656 39.244ZM13.38 42.1C14.196 42.688 14.892 43.276 15.444 43.864L14.58 44.728C14.088 44.176 13.392 43.588 12.504 42.952L13.38 42.1ZM14.448 45.34L15.588 45.796C15.096 47.32 14.556 48.76 13.956 50.104L12.696 49.552C13.368 48.184 13.956 46.78 14.448 45.34ZM27.696 47.536V48.736C26.808 49.192 25.812 49.564 24.708 49.852L24.54 48.628C25.74 48.364 26.784 47.992 27.696 47.536ZM26.052 39.1L27.228 39.544C26.76 40.948 26.28 42.1 25.8 43.012C26.052 42.976 26.304 42.94 26.556 42.892C26.724 42.472 26.892 42.028 27.072 41.56L28.02 41.932V40.12H28.932C29.04 39.784 29.124 39.448 29.184 39.088L30.36 39.256C30.288 39.556 30.204 39.844 30.096 40.12H31.38V43.588C31.908 42.412 32.268 40.912 32.472 39.088L33.6 39.28C33.504 39.976 33.396 40.612 33.252 41.2H35.388V42.352H34.908C34.86 44.224 34.608 45.82 34.152 47.14C34.572 47.992 35.064 48.652 35.64 49.132L34.932 50.164C34.428 49.708 33.984 49.132 33.6 48.424C33.228 49.12 32.784 49.732 32.268 50.236L31.62 49.18C32.196 48.652 32.652 47.98 33 47.14C32.664 46.312 32.388 45.364 32.16 44.308C32.04 44.5 31.932 44.692 31.824 44.86L31.188 44.068H30.048L30.252 44.86H31.656V45.916H29.808C29.784 46.156 29.748 46.372 29.724 46.576H31.368C31.368 48.208 31.272 49.204 31.104 49.564C30.912 49.912 30.588 50.092 30.132 50.116H29.436L29.148 49.096H29.844C30.024 49.072 30.144 48.988 30.192 48.82C30.228 48.64 30.252 48.232 30.264 47.584H29.508C29.436 47.848 29.352 48.1 29.28 48.316C29.004 49.024 28.596 49.66 28.044 50.212L27.3 49.276C27.732 48.82 28.068 48.328 28.296 47.788C28.476 47.308 28.608 46.684 28.704 45.916H27.696V46.48C26.7 46.936 25.764 47.236 24.876 47.38L24.552 46.264C24.768 46.18 24.96 46.06 25.104 45.916C25.368 45.532 25.704 44.884 26.112 43.948C25.668 44.044 25.212 44.152 24.744 44.248L24.444 43.108C24.636 43.024 24.816 42.868 24.96 42.652C25.38 41.572 25.74 40.384 26.052 39.1ZM27.684 45.376V44.86H29.088L28.872 44.068H28.02V42.22C27.324 43.852 26.736 45.088 26.232 45.916C26.712 45.772 27.204 45.592 27.684 45.376ZM32.844 42.688C33.012 43.744 33.24 44.692 33.504 45.52C33.696 44.584 33.816 43.528 33.852 42.352H32.952C32.916 42.472 32.88 42.58 32.844 42.688ZM30.396 43.18V42.508H29.028V43.18H30.396ZM29.028 41.668H30.396V41.008H29.028V41.668ZM38.796 42.088L38.652 42.616H39.924C39.972 42.436 40.008 42.256 40.032 42.088H38.796ZM41.244 42.088C41.22 42.28 41.196 42.448 41.172 42.616H42.72V42.088H41.244ZM43.932 42.088V42.616H47.076C47.076 43.564 46.968 44.164 46.776 44.428C46.584 44.692 46.128 44.836 45.42 44.848C45.228 44.848 45.036 44.836 44.844 44.824L44.616 43.972C44.844 43.996 45.06 44.008 45.264 44.008C45.564 44.008 45.744 43.972 45.804 43.9C45.852 43.804 45.888 43.696 45.888 43.552H43.932V44.764H42.72V43.552H40.86C40.704 43.84 40.512 44.092 40.296 44.32C40.056 44.548 39.756 44.752 39.396 44.944H46.08V48.316H44.832V46.048H39.48V48.316H38.244V45.388C38.016 45.46 37.788 45.52 37.548 45.58L36.924 44.608C38.136 44.344 38.94 44.008 39.348 43.612L39.408 43.552H37.296L37.776 41.14H40.044V40.612H37.416V39.616H40.044V39.124H41.256V39.616H42.72V39.124H43.932V39.616H46.428V42.088H43.932ZM41.256 40.612V41.14H42.72V40.612H41.256ZM43.932 40.612V41.14H45.264V40.612H43.932ZM42.912 48.052C44.46 48.388 45.876 48.808 47.148 49.312L46.476 50.356C45.12 49.78 43.716 49.324 42.276 48.988L42.912 48.052ZM41.496 46.3L42.744 46.42C42.576 47.8 42.216 48.712 41.664 49.168C41.076 49.744 39.648 50.128 37.38 50.296L36.876 49.168C38.748 49.096 39.984 48.844 40.584 48.436C41.112 48.016 41.412 47.308 41.496 46.3Z" fill="#232A49"/>
<mask id="mask0_2_3518" style="mask-type:luminance" maskUnits="userSpaceOnUse" x="21" y="12" width="7" height="13">
<path fill-rule="evenodd" clip-rule="evenodd" d="M25.5392 12.7564L21.6269 16.6687C21.2744 17.0198 21.1699 17.545 21.3608 18.0053C21.5502 18.4664 21.9953 18.7632 22.494 18.7632H26.3541C26.3729 18.7632 26.43 18.7632 26.4586 18.8328C26.4879 18.9025 26.4475 18.9429 26.4342 18.9554L22.3262 23.0635C22.1082 23.2815 22.1082 23.6346 22.3262 23.8526C22.4348 23.9606 22.5776 24.0156 22.7204 24.0156C22.8632 24.0156 23.0046 23.9606 23.1139 23.8526L27.2227 19.7432C27.5744 19.3907 27.6789 18.8662 27.4881 18.4058C27.2979 17.9468 26.8521 17.6487 26.3541 17.6487H22.494C22.4759 17.6487 22.4188 17.6487 22.3902 17.5791C22.3617 17.5101 22.4021 17.4704 22.4146 17.4565L26.327 13.5442C26.545 13.3268 26.545 12.9737 26.327 12.7564C26.2183 12.6477 26.0762 12.5927 25.9334 12.5927C25.7906 12.5927 25.6486 12.6477 25.5392 12.7564Z" fill="white"/>
</mask>
<g mask="url(#mask0_2_3518)">
<path fill-rule="evenodd" clip-rule="evenodd" d="M25.5392 12.7564L21.6269 16.6687C21.2744 17.0198 21.1699 17.545 21.3608 18.0053C21.5502 18.4664 21.9953 18.7632 22.494 18.7632H26.3541C26.3729 18.7632 26.43 18.7632 26.4586 18.8328C26.4879 18.9025 26.4475 18.9429 26.4342 18.9554L22.3262 23.0635C22.1082 23.2815 22.1082 23.6346 22.3262 23.8526C22.4348 23.9606 22.5776 24.0156 22.7204 24.0156C22.8632 24.0156 23.0046 23.9606 23.1139 23.8526L27.2227 19.7432C27.5744 19.3907 27.6789 18.8662 27.4881 18.4058C27.2979 17.9468 26.8521 17.6487 26.3541 17.6487H22.494C22.4759 17.6487 22.4188 17.6487 22.3902 17.5791C22.3617 17.5101 22.4021 17.4704 22.4146 17.4565L26.327 13.5442C26.545 13.3268 26.545 12.9737 26.327 12.7564C26.2183 12.6477 26.0762 12.5927 25.9334 12.5927C25.7906 12.5927 25.6486 12.6477 25.5392 12.7564Z" fill="url(#paint0_linear_2_3518)"/>
</g>
<path fill-rule="evenodd" clip-rule="evenodd" d="M24.4246 29.0835C20.2574 29.0835 16.5338 26.5956 14.9374 22.7445C13.343 18.8956 14.2172 14.5027 17.1634 11.5529L22.0725 6.64454C22.6987 6.01768 23.5345 5.67221 24.4232 5.67151H24.4246C25.3134 5.67151 26.1492 6.01698 26.7768 6.64454L31.6851 11.5529C34.6328 14.5006 35.5062 18.8942 33.9112 22.7445C33.6876 23.2843 33.416 23.8095 33.1039 24.3054C32.9396 24.5652 32.5955 24.6432 32.335 24.4796C32.0752 24.3159 31.9972 23.9718 32.1609 23.7113C32.4402 23.269 32.6819 22.8003 32.8818 22.3183C34.304 18.8851 33.5246 14.9686 30.8974 12.3407L25.989 7.433C25.5711 7.01579 25.0167 6.78594 24.4246 6.78594H24.4239C23.8319 6.78594 23.2775 7.01579 22.8603 7.433L17.9519 12.3407C15.3253 14.9707 14.5452 18.8865 15.9668 22.3183C17.3898 25.7507 20.7094 27.9691 24.4246 27.9691C26.0635 27.9691 27.6704 27.5324 29.0739 26.707C29.3386 26.551 29.6806 26.6402 29.8366 26.9048C29.9919 27.1702 29.9034 27.5115 29.6381 27.6675C28.0646 28.5939 26.262 29.0835 24.4246 29.0835Z" fill="#607088"/>
</g>
</g>
<defs>
<linearGradient id="paint0_linear_2_3518" x1="21.2665" y1="24.0156" x2="27.5822" y2="24.0156" gradientUnits="userSpaceOnUse">
<stop stop-color="#EBC675"/>
<stop offset="1" stop-color="#D4B179"/>
</linearGradient>
<clipPath id="clip0_2_3518">
<rect width="48" height="53" fill="white"/>
</clipPath>
<clipPath id="clip1_2_3518">
<rect width="48" height="53" fill="white"/>
</clipPath>
</defs>
</svg>
