<svg width="48" height="53" viewBox="0 0 48 53" fill="none" xmlns="http://www.w3.org/2000/svg">
<g clip-path="url(#clip0_2_3498)">
<g clip-path="url(#clip1_2_3498)">
<path d="M7.656 44.08C7.368 44.464 7.068 44.824 6.756 45.184L6.336 43.84C7.416 42.472 8.232 40.864 8.76 39.016L9.936 39.568C9.672 40.468 9.324 41.32 8.892 42.136V50.272H7.656V44.08ZM9.66 40.54H13.104C12.948 40.156 12.78 39.796 12.6 39.436L13.8 39.112C14.04 39.628 14.22 40.108 14.34 40.54H17.568V41.716H9.66V40.54ZM10.74 42.352H16.56V43.468H10.74V42.352ZM10.74 44.044H16.56V45.172H10.74V44.044ZM16.824 45.832V50.248H15.612V49.648H11.688V50.248H10.464V45.832H16.824ZM11.688 48.46H15.612V46.996H11.688V48.46ZM20.772 43.576V45.304H23.412V43.576H20.772ZM20.712 46.456C20.556 47.944 20.112 49.192 19.38 50.176L18.42 49.312C19.128 48.304 19.488 47.02 19.512 45.46V39.52H28.812V48.58C28.812 49.504 28.332 49.972 27.384 49.972H26.004L25.668 48.748C26.148 48.796 26.58 48.82 26.988 48.82C27.348 48.82 27.54 48.58 27.54 48.124V46.456H24.684V49.84H23.412V46.456H20.712ZM27.54 45.304V43.576H24.684V45.304H27.54ZM27.54 42.424V40.744H24.684V42.424H27.54ZM23.412 40.744H20.772V42.424H23.412V40.744ZM34.776 39.172H36.048V40.492H39.828V41.692H36.048V43.132H41.376V44.356H36.048V45.352C37.416 45.952 38.82 46.648 40.248 47.44L39.528 48.508C38.148 47.668 36.984 47.032 36.048 46.588V50.248H34.776V44.356H30.612V43.132H34.776V39.172Z" fill="#232A49"/>
<path fill-rule="evenodd" clip-rule="evenodd" d="M34.2089 27.6317H14.1262C12.6057 27.6317 11.3694 26.3947 11.3694 24.8749C11.3694 24.567 11.6187 24.3177 11.9266 24.3177C12.2337 24.3177 12.4838 24.567 12.4838 24.8749C12.4838 25.7803 13.22 26.5173 14.1262 26.5173H34.2089C35.115 26.5173 35.8513 25.7803 35.8513 24.8749V11.1402C35.8513 10.2341 35.115 9.49715 34.2089 9.49715H14.1262C13.22 9.49715 12.4838 10.2341 12.4838 11.1402V21.5964C12.4838 21.9042 12.2337 22.1536 11.9266 22.1536C11.6187 22.1536 11.3694 21.9042 11.3694 21.5964V11.1402C11.3694 9.62044 12.6057 8.38342 14.1262 8.38342H34.2089C35.7294 8.38342 36.9657 9.62044 36.9657 11.1402V24.8749C36.9657 26.3947 35.7294 27.6317 34.2089 27.6317Z" fill="#607088"/>
<path fill-rule="evenodd" clip-rule="evenodd" d="M36.4086 14.6802H11.9267C11.6189 14.6802 11.3695 14.4308 11.3695 14.1229C11.3695 13.8151 11.6189 13.5657 11.9267 13.5657H36.4086C36.7158 13.5657 36.9658 13.8151 36.9658 14.1229C36.9658 14.4308 36.7158 14.6802 36.4086 14.6802Z" fill="#607088"/>
<mask id="mask0_2_3498" style="mask-type:luminance" maskUnits="userSpaceOnUse" x="28" y="19" width="6" height="6">
<path fill-rule="evenodd" clip-rule="evenodd" d="M29.4556 19.1136C29.193 19.1136 28.966 19.2968 28.9109 19.5531L28.0821 23.4049C28.0473 23.5693 28.0884 23.7413 28.1942 23.873C28.2994 24.0039 28.4582 24.0798 28.6275 24.0798H32.2083C32.4708 24.0798 32.6979 23.8959 32.7529 23.6396L33.5825 19.7872C33.6173 19.6235 33.5769 19.4515 33.471 19.3205C33.3659 19.1896 33.2064 19.1136 33.0378 19.1136H29.4556ZM29.9063 20.2274H32.3476L31.7583 22.9654H29.317L29.9063 20.2274Z" fill="white"/>
</mask>
<g mask="url(#mask0_2_3498)">
<path fill-rule="evenodd" clip-rule="evenodd" d="M29.4556 19.1136C29.193 19.1136 28.966 19.2968 28.9109 19.5531L28.0821 23.4049C28.0473 23.5693 28.0884 23.7413 28.1942 23.873C28.2994 24.0039 28.4582 24.0798 28.6275 24.0798H32.2083C32.4708 24.0798 32.6979 23.8959 32.7529 23.6396L33.5825 19.7872C33.6173 19.6235 33.5769 19.4515 33.471 19.3205C33.3659 19.1896 33.2064 19.1136 33.0378 19.1136H29.4556ZM29.9063 20.2274H32.3476L31.7583 22.9654H29.317L29.9063 20.2274Z" fill="url(#paint0_linear_2_3498)"/>
</g>
<mask id="mask1_2_3498" style="mask-type:luminance" maskUnits="userSpaceOnUse" x="14" y="19" width="10" height="2">
<path fill-rule="evenodd" clip-rule="evenodd" d="M15.4201 19.6896C15.1129 19.6896 14.8636 19.9383 14.8636 20.2462C14.8636 20.554 15.1129 20.8034 15.4201 20.8034H23.3221C23.6293 20.8034 23.8786 20.554 23.8786 20.2462C23.8786 19.9383 23.6293 19.6896 23.3221 19.6896H15.4201Z" fill="white"/>
</mask>
<g mask="url(#mask1_2_3498)">
<path fill-rule="evenodd" clip-rule="evenodd" d="M15.4201 19.6896C15.1129 19.6896 14.8636 19.9383 14.8636 20.2462C14.8636 20.554 15.1129 20.8034 15.4201 20.8034H23.3221C23.6293 20.8034 23.8786 20.554 23.8786 20.2462C23.8786 19.9383 23.6293 19.6896 23.3221 19.6896H15.4201Z" fill="url(#paint1_linear_2_3498)"/>
</g>
<mask id="mask2_2_3498" style="mask-type:luminance" maskUnits="userSpaceOnUse" x="14" y="22" width="10" height="2">
<path fill-rule="evenodd" clip-rule="evenodd" d="M15.4201 22.3887C15.1129 22.3887 14.8636 22.6373 14.8636 22.9452C14.8636 23.253 15.1129 23.5024 15.4201 23.5024H23.3221C23.6293 23.5024 23.8786 23.253 23.8786 22.9452C23.8786 22.6373 23.6293 22.3887 23.3221 22.3887H15.4201Z" fill="white"/>
</mask>
<g mask="url(#mask2_2_3498)">
<path fill-rule="evenodd" clip-rule="evenodd" d="M15.4201 22.3887C15.1129 22.3887 14.8636 22.6373 14.8636 22.9452C14.8636 23.253 15.1129 23.5024 15.4201 23.5024H23.3221C23.6293 23.5024 23.8786 23.253 23.8786 22.9452C23.8786 22.6373 23.6293 22.3887 23.3221 22.3887H15.4201Z" fill="url(#paint2_linear_2_3498)"/>
</g>
</g>
</g>
<defs>
<linearGradient id="paint0_linear_2_3498" x1="28.0699" y1="24.0796" x2="33.5949" y2="24.0796" gradientUnits="userSpaceOnUse">
<stop stop-color="#EBC675"/>
<stop offset="1" stop-color="#D4B179"/>
</linearGradient>
<linearGradient id="paint1_linear_2_3498" x1="14.8635" y1="20.8034" x2="23.8788" y2="20.8034" gradientUnits="userSpaceOnUse">
<stop stop-color="#EBC675"/>
<stop offset="1" stop-color="#D4B179"/>
</linearGradient>
<linearGradient id="paint2_linear_2_3498" x1="14.8635" y1="23.5021" x2="23.8788" y2="23.5021" gradientUnits="userSpaceOnUse">
<stop stop-color="#EBC675"/>
<stop offset="1" stop-color="#D4B179"/>
</linearGradient>
<clipPath id="clip0_2_3498">
<rect width="48" height="53" fill="white"/>
</clipPath>
<clipPath id="clip1_2_3498">
<rect width="48" height="53" fill="white"/>
</clipPath>
</defs>
</svg>
