<svg width="48" height="53" viewBox="0 0 48 53" fill="none" xmlns="http://www.w3.org/2000/svg">
<g clip-path="url(#clip0_2_3513)">
<g clip-path="url(#clip1_2_3513)">
<path d="M7.44 39.16H8.712V42.7C9.672 43.384 10.656 44.164 11.652 45.028L10.872 46.204C10.032 45.328 9.312 44.632 8.712 44.104V50.248H7.44V39.16ZM2.94 43.864C3.528 44.164 4.08 44.524 4.584 44.932C5.04 44.02 5.352 43.012 5.532 41.92H3.492C2.916 43.252 2.16 44.356 1.2 45.232L0.336 44.152C1.668 42.916 2.568 41.248 3.036 39.148L4.296 39.364C4.188 39.832 4.068 40.276 3.936 40.708H6.756V41.824C6.348 45.448 4.596 48.184 1.5 50.032L0.636 48.964C2.052 48.16 3.18 47.152 4.008 45.928C3.432 45.472 2.856 45.112 2.28 44.836L2.94 43.864ZM17.76 48.592H23.364V49.864H16.5V39.532H23.28V40.756H17.76V48.592ZM13.572 39.304C14.508 39.904 15.288 40.492 15.936 41.092L15.048 41.98C14.496 41.428 13.704 40.816 12.684 40.168L13.572 39.304ZM13.344 42.244C14.208 42.82 14.94 43.384 15.54 43.96L14.652 44.86C14.136 44.308 13.404 43.732 12.456 43.108L13.344 42.244ZM14.448 45.82L15.612 46.276C15.084 47.68 14.508 49 13.884 50.224L12.588 49.648C13.308 48.4 13.92 47.128 14.448 45.82ZM29.172 39.52V42.58C29.82 41.608 30.276 40.456 30.528 39.112L31.74 39.268C31.644 39.784 31.512 40.276 31.368 40.744H35.184C35.184 45.016 35.124 47.656 35.016 48.664C34.896 49.648 34.344 50.152 33.36 50.152C33.024 50.152 32.448 50.128 31.608 50.092L31.308 48.976C32.028 49.012 32.652 49.036 33.18 49.036C33.564 49.036 33.78 48.736 33.852 48.16C33.912 47.572 33.948 45.508 33.96 41.956H30.9C30.564 42.664 30.168 43.3 29.712 43.864L29.172 43.156V47.212H28.068V40.672H25.944V47.212H24.816V39.52H29.172ZM32.772 44.452C33.12 45.388 33.456 46.408 33.792 47.524L32.772 48.04C32.7 47.752 32.628 47.488 32.556 47.224C31.668 47.416 30.696 47.56 29.64 47.668L29.436 46.576C29.796 46.456 30.312 45.196 30.996 42.772L32.136 43.168C31.704 44.452 31.26 45.556 30.804 46.48C31.308 46.42 31.788 46.336 32.268 46.228C32.124 45.76 31.968 45.316 31.824 44.908L32.772 44.452ZM26.472 41.38H27.504V45.316C27.468 46.66 27.264 47.74 26.892 48.544C26.532 49.3 25.944 49.876 25.128 50.284L24.468 49.24C25.236 48.844 25.764 48.352 26.028 47.776C26.292 47.14 26.436 46.324 26.472 45.316V41.38ZM28.032 47.488C28.68 48.1 29.22 48.7 29.676 49.288L28.776 50.188C28.416 49.588 27.9 48.952 27.228 48.268L28.032 47.488ZM41.76 48.592H47.364V49.864H40.5V39.532H47.28V40.756H41.76V48.592ZM37.572 39.304C38.508 39.904 39.288 40.492 39.936 41.092L39.048 41.98C38.496 41.428 37.704 40.816 36.684 40.168L37.572 39.304ZM37.344 42.244C38.208 42.82 38.94 43.384 39.54 43.96L38.652 44.86C38.136 44.308 37.404 43.732 36.456 43.108L37.344 42.244ZM38.448 45.82L39.612 46.276C39.084 47.68 38.508 49 37.884 50.224L36.588 49.648C37.308 48.4 37.92 47.128 38.448 45.82Z" fill="#232A49"/>
<path fill-rule="evenodd" clip-rule="evenodd" d="M13.8121 16.7931C13.7745 16.7931 13.7369 16.7896 13.6986 16.7812C13.397 16.7193 13.2034 16.4246 13.2661 16.123C14.3345 10.9437 18.9538 7.18463 24.2494 7.18463C29.5458 7.18463 34.1651 10.9437 35.2335 16.123C35.2677 16.2867 35.2259 16.4581 35.12 16.5876C35.0141 16.7179 34.8553 16.7931 34.6881 16.7931H30.7486C30.4415 16.7931 30.1921 16.5437 30.1921 16.2359C30.1921 15.928 30.4415 15.6787 30.7486 15.6787H33.9798C32.7748 11.3637 28.7879 8.29836 24.2494 8.29836C19.4804 8.29836 15.3194 11.6841 14.3568 16.348C14.3025 16.612 14.0705 16.7931 13.8121 16.7931Z" fill="#607088"/>
<path fill-rule="evenodd" clip-rule="evenodd" d="M24.2497 29.6167C18.9534 29.6167 14.3348 25.8576 13.2657 20.6783C13.2322 20.514 13.2733 20.3433 13.3799 20.2138C13.4851 20.0835 13.6439 20.0083 13.8117 20.0083H17.7505C18.0577 20.0083 18.3077 20.2576 18.3077 20.5655C18.3077 20.8734 18.0577 21.1227 17.7505 21.1227H14.5194C15.7251 25.4376 19.7112 28.5023 24.2497 28.5023C29.0195 28.5023 33.1798 25.1172 34.1424 20.4527C34.2044 20.1511 34.499 19.9574 34.8006 20.0194C35.1022 20.0821 35.2958 20.3767 35.2338 20.6783C34.1647 25.8576 29.5461 29.6167 24.2497 29.6167Z" fill="#607088"/>
<mask id="mask0_2_3513" style="mask-type:luminance" maskUnits="userSpaceOnUse" x="20" y="11" width="9" height="15">
<path fill-rule="evenodd" clip-rule="evenodd" d="M23.6922 11.9954V14.8637H22.4907C21.3624 14.8637 20.4444 15.7817 20.4444 16.9107C20.4444 18.0398 21.3624 18.9578 22.4907 18.9578H23.6922V20.8231H21.0016C20.6937 20.8231 20.4444 21.0717 20.4444 21.3796C20.4444 21.6875 20.6937 21.9368 21.0016 21.9368H23.6922V24.8058C23.6922 25.1129 23.9423 25.363 24.2494 25.363C24.5566 25.363 24.8074 25.1129 24.8074 24.8058V21.9368H26.0088C27.1372 21.9368 28.0552 21.0195 28.0552 19.8904C28.0552 18.7614 27.1372 17.8434 26.0088 17.8434H24.8074V15.9781H27.498C27.8059 15.9781 28.0552 15.7295 28.0552 15.4216C28.0552 15.1137 27.8059 14.8637 27.498 14.8637H24.8074V11.9954C24.8074 11.6876 24.5566 11.4389 24.2494 11.4389C23.9423 11.4389 23.6922 11.6876 23.6922 11.9954ZM21.5581 16.9107C21.5581 16.3967 21.9767 15.9781 22.4907 15.9781H23.6922V17.8434H22.4907C21.9767 17.8434 21.5581 17.4248 21.5581 16.9107ZM24.8074 18.9578H26.0088C26.5229 18.9578 26.9408 19.3764 26.9408 19.8904C26.9408 20.4045 26.5229 20.8231 26.0088 20.8231H24.8074V18.9578Z" fill="white"/>
</mask>
<g mask="url(#mask0_2_3513)">
<path fill-rule="evenodd" clip-rule="evenodd" d="M23.6922 11.9954V14.8637H22.4907C21.3624 14.8637 20.4444 15.7817 20.4444 16.9107C20.4444 18.0398 21.3624 18.9578 22.4907 18.9578H23.6922V20.8231H21.0016C20.6937 20.8231 20.4444 21.0717 20.4444 21.3796C20.4444 21.6875 20.6937 21.9368 21.0016 21.9368H23.6922V24.8058C23.6922 25.1129 23.9423 25.363 24.2494 25.363C24.5566 25.363 24.8074 25.1129 24.8074 24.8058V21.9368H26.0088C27.1372 21.9368 28.0552 21.0195 28.0552 19.8904C28.0552 18.7614 27.1372 17.8434 26.0088 17.8434H24.8074V15.9781H27.498C27.8059 15.9781 28.0552 15.7295 28.0552 15.4216C28.0552 15.1137 27.8059 14.8637 27.498 14.8637H24.8074V11.9954C24.8074 11.6876 24.5566 11.4389 24.2494 11.4389C23.9423 11.4389 23.6922 11.6876 23.6922 11.9954ZM21.5581 16.9107C21.5581 16.3967 21.9767 15.9781 22.4907 15.9781H23.6922V17.8434H22.4907C21.9767 17.8434 21.5581 17.4248 21.5581 16.9107ZM24.8074 18.9578H26.0088C26.5229 18.9578 26.9408 19.3764 26.9408 19.8904C26.9408 20.4045 26.5229 20.8231 26.0088 20.8231H24.8074V18.9578Z" fill="url(#paint0_linear_2_3513)"/>
</g>
</g>
</g>
<defs>
<linearGradient id="paint0_linear_2_3513" x1="20.444" y1="25.363" x2="28.0554" y2="25.363" gradientUnits="userSpaceOnUse">
<stop stop-color="#EBC675"/>
<stop offset="1" stop-color="#D4B179"/>
</linearGradient>
<clipPath id="clip0_2_3513">
<rect width="48" height="53" fill="white"/>
</clipPath>
<clipPath id="clip1_2_3513">
<rect width="48" height="53" fill="white"/>
</clipPath>
</defs>
</svg>
