<svg width="50" height="53" viewBox="0 0 50 53" fill="none" xmlns="http://www.w3.org/2000/svg">
<g clip-path="url(#clip0_2_3506)">
<g clip-path="url(#clip1_2_3506)">
<path d="M13.32 40.072H15.612V39.172H16.824V40.072H19.128V39.16H20.34V40.072H22.728V41.176H20.34V41.92H23.364V43.036H18.6V43.66H22.104V48.136H19.956C21.216 48.436 22.356 48.796 23.388 49.204L22.716 50.248C21.492 49.684 20.244 49.24 18.96 48.916L19.488 48.136H16.356L16.92 48.784C15.888 49.372 14.628 49.864 13.14 50.26L12.624 49.156C13.884 48.892 14.952 48.544 15.816 48.136H13.896V43.66H17.4V43.036H12.648V41.92H15.612V41.176H13.32V40.072ZM19.128 41.92V41.176H16.824V41.92H19.128ZM20.904 47.08V46.384H18.6V47.08H20.904ZM17.4 47.08V46.384H15.096V47.08H17.4ZM15.096 45.376H17.4V44.692H15.096V45.376ZM18.6 44.692V45.376H20.904V44.692H18.6ZM26.808 42.832C26.292 43.132 25.764 43.408 25.212 43.66L24.48 42.604C26.556 41.716 28.236 40.564 29.508 39.16H30.516C31.62 40.528 33.288 41.68 35.508 42.592L34.788 43.648C34.224 43.408 33.696 43.156 33.216 42.88V43.492H30.636V44.824H34.764V45.988H30.636V48.82H31.668C32.028 48.076 32.34 47.296 32.616 46.468L33.744 46.888C33.492 47.608 33.216 48.244 32.928 48.82H35.196V50.008H24.816V48.82H27.12C26.904 48.172 26.628 47.548 26.304 46.972L27.444 46.552C27.768 47.188 28.068 47.944 28.332 48.82H29.388V45.988H25.248V44.824H29.388V43.492H26.808V42.832ZM32.376 42.376C31.464 41.776 30.672 41.092 30.012 40.336C29.268 41.104 28.44 41.776 27.54 42.376H32.376Z" fill="#232A49"/>
<path fill-rule="evenodd" clip-rule="evenodd" d="M27.3208 18.9877H21.5522C20.6815 18.9877 19.8715 18.5976 19.3275 17.9178C18.7842 17.238 18.5829 16.3611 18.7752 15.5121L20.0505 9.8821C20.3458 8.57613 21.4881 7.6637 22.8275 7.6637H25.5014C25.8086 7.6637 26.0587 7.91305 26.0587 8.22091C26.0587 8.52877 25.8086 8.77812 25.5014 8.77812H22.8275C22.0126 8.77812 21.3175 9.33325 21.1378 10.128L19.8624 15.7579C19.7454 16.2747 19.868 16.8083 20.1982 17.222C20.529 17.6364 21.0221 17.8732 21.5522 17.8732H27.3208C27.8508 17.8732 28.3439 17.6364 28.6741 17.222C29.0049 16.8083 29.1275 16.2747 29.0105 15.7579L28.5543 13.7457C28.4867 13.4448 28.6748 13.1467 28.975 13.0791C29.2752 13.0095 29.5733 13.1989 29.6415 13.4991L30.0971 15.5121C30.29 16.3611 30.0887 17.238 29.5447 17.9178C29.0014 18.5976 28.1914 18.9877 27.3208 18.9877Z" fill="#607088"/>
<path fill-rule="evenodd" clip-rule="evenodd" d="M28.1962 18.9877C27.3813 18.9877 26.6862 19.5428 26.5064 20.3375L25.2311 25.9682C25.1141 26.485 25.2367 27.0185 25.5675 27.4322C25.8977 27.846 26.3915 28.0835 26.9216 28.0835H32.6894C33.2195 28.0835 33.7126 27.846 34.0435 27.4322C34.3736 27.0185 34.4962 26.485 34.3792 25.9682L33.1046 20.3375C32.9242 19.5428 32.229 18.9877 31.4148 18.9877H28.1962ZM32.6894 29.1979H26.9216C26.0509 29.1979 25.2402 28.8079 24.6969 28.1281C24.1529 27.4476 23.9516 26.5706 24.1446 25.7216L25.4199 20.0916C25.7145 18.7857 26.8568 17.8732 28.1962 17.8732H31.4148C32.7535 17.8732 33.8951 18.7857 34.1911 20.0916L35.4664 25.7216C35.6587 26.5706 35.4574 27.4476 34.9141 28.1281C34.3701 28.8079 33.5601 29.1979 32.6894 29.1979Z" fill="#607088"/>
<mask id="mask0_2_3506" style="mask-type:luminance" maskUnits="userSpaceOnUse" x="13" y="17" width="12" height="13">
<path fill-rule="evenodd" clip-rule="evenodd" d="M17.4591 17.8734C16.1197 17.8734 14.9774 18.7858 14.6814 20.0918L13.4068 25.7217C13.2145 26.5708 13.4158 27.4477 13.9591 28.1282C14.5024 28.808 15.3124 29.198 16.1831 29.198H21.9523C22.823 29.198 23.633 28.808 24.1763 28.1282C24.7196 27.4477 24.9209 26.5708 24.7287 25.7217L23.4526 20.0918C23.158 18.7858 22.0164 17.8734 20.6763 17.8734H17.4591ZM14.8298 27.4324C14.4996 27.0186 14.3763 26.4851 14.494 25.9683L15.768 20.3376C15.9484 19.5429 16.6442 18.9878 17.4591 18.9878H20.6763C21.4912 18.9878 22.1864 19.5429 22.3668 20.3376L23.6414 25.9683C23.7591 26.4851 23.6358 27.0186 23.3057 27.4324C22.9755 27.8468 22.4817 28.0836 21.9523 28.0836H16.1831C15.6537 28.0836 15.1599 27.8468 14.8298 27.4324Z" fill="white"/>
</mask>
<g mask="url(#mask0_2_3506)">
<path fill-rule="evenodd" clip-rule="evenodd" d="M17.4591 17.8734C16.1197 17.8734 14.9774 18.7858 14.6814 20.0918L13.4068 25.7217C13.2145 26.5708 13.4158 27.4477 13.9591 28.1282C14.5024 28.808 15.3124 29.198 16.1831 29.198H21.9523C22.823 29.198 23.633 28.808 24.1763 28.1282C24.7196 27.4477 24.9209 26.5708 24.7287 25.7217L23.4526 20.0918C23.158 18.7858 22.0164 17.8734 20.6763 17.8734H17.4591ZM14.8298 27.4324C14.4996 27.0186 14.3763 26.4851 14.494 25.9683L15.768 20.3376C15.9484 19.5429 16.6442 18.9878 17.4591 18.9878H20.6763C21.4912 18.9878 22.1864 19.5429 22.3668 20.3376L23.6414 25.9683C23.7591 26.4851 23.6358 27.0186 23.3057 27.4324C22.9755 27.8468 22.4817 28.0836 21.9523 28.0836H16.1831C15.6537 28.0836 15.1599 27.8468 14.8298 27.4324Z" fill="url(#paint0_linear_2_3506)"/>
</g>
<g clip-path="url(#clip2_2_3506)">
<path d="M23 8.4C23 4.86538 25.8654 2 29.4 2H44C47.3137 2 50 4.68629 50 8C50 11.3137 47.3137 14 44 14H24.6C23.7163 14 23 13.2837 23 12.4V8.4Z" fill="#D1A966" stroke="white"/>
<path d="M31.084 7.744V5.536H29.06V7.744H31.084ZM31.82 4.824V8.448H28.348V4.824H31.82ZM28.132 8.704L27.708 9.32C27.564 9.048 27.236 8.544 26.956 8.144V11.64H26.244V8.376C25.924 9.12 25.54 9.832 25.148 10.304C25.068 10.088 24.884 9.784 24.764 9.584C25.268 9.048 25.796 8.096 26.116 7.24H24.876V6.552H26.244V5.4C25.82 5.48 25.396 5.536 24.996 5.584C24.972 5.416 24.876 5.168 24.804 5C25.804 4.864 26.956 4.624 27.652 4.344L28.068 4.952C27.74 5.064 27.364 5.176 26.956 5.264V6.552H28.132V7.24H26.956V7.392C27.22 7.656 27.964 8.488 28.132 8.704ZM28.884 9.168L29.628 9.336C29.364 10.216 28.908 11.08 28.412 11.632C28.268 11.512 27.956 11.296 27.788 11.192C28.276 10.712 28.676 9.944 28.884 9.168ZM30.484 9.392L31.14 9.136C31.556 9.816 32.012 10.712 32.18 11.288L31.476 11.576C31.316 11 30.884 10.088 30.484 9.392ZM39.996 6.04H35.716C35.444 6.64 35.116 7.232 34.724 7.76V11.624H33.972V8.64C33.708 8.904 33.42 9.144 33.116 9.352C33.036 9.152 32.868 8.832 32.748 8.656C33.676 8.032 34.388 7.072 34.892 6.04H33.012V5.328H35.204C35.332 4.984 35.444 4.632 35.54 4.288L36.308 4.472C36.22 4.752 36.116 5.048 36.02 5.328H39.996V6.04ZM40.132 8.832V9.528H38.116V10.808C38.116 11.208 38.036 11.416 37.74 11.52C37.452 11.632 36.996 11.64 36.34 11.632C36.308 11.424 36.212 11.128 36.116 10.92C36.588 10.944 37.06 10.944 37.188 10.936C37.332 10.928 37.364 10.896 37.364 10.792V9.528H35.244V8.832H37.364V8.224C37.692 8.032 38.052 7.752 38.356 7.48H35.892V6.808H39.044L39.196 6.768L39.668 7.144C39.252 7.6 38.676 8.08 38.116 8.44V8.832H40.132ZM42.9 6.632H46.204C45.58 6.256 44.988 5.816 44.508 5.336C44.044 5.84 43.5 6.272 42.9 6.632ZM46.564 7.32H44.876V8.288H47.556V8.96H44.876V10.744H47.94V11.424H41.076V10.744H44.084V8.96H41.444V8.288H44.084V7.32H42.412V6.904C42.036 7.104 41.652 7.272 41.252 7.416C41.148 7.2 40.94 6.912 40.756 6.728C42.244 6.272 43.692 5.392 44.452 4.216L45.148 4.528C45.076 4.632 45.012 4.736 44.94 4.832C45.724 5.616 47.068 6.376 48.268 6.736C48.1 6.888 47.868 7.184 47.756 7.384C47.364 7.24 46.964 7.056 46.564 6.832V7.32ZM46.052 10.712L45.484 10.472C45.756 10.088 46.092 9.48 46.26 9.04L46.98 9.304C46.676 9.808 46.324 10.352 46.052 10.712ZM42.052 9.28L42.66 9.04C42.964 9.464 43.284 10.048 43.412 10.424L42.764 10.704C42.652 10.328 42.34 9.728 42.052 9.28Z" fill="white"/>
</g>
</g>
</g>
<defs>
<linearGradient id="paint0_linear_2_3506" x1="13.3354" y1="29.1981" x2="24.7999" y2="29.1981" gradientUnits="userSpaceOnUse">
<stop stop-color="#EBC675"/>
<stop offset="1" stop-color="#D4B179"/>
</linearGradient>
<clipPath id="clip0_2_3506">
<rect width="50" height="53" fill="white"/>
</clipPath>
<clipPath id="clip1_2_3506">
<rect width="50" height="53" fill="white"/>
</clipPath>
<clipPath id="clip2_2_3506">
<rect width="27" height="12" fill="white" transform="translate(23 2)"/>
</clipPath>
</defs>
</svg>
