<svg xmlns="http://www.w3.org/2000/svg" width="24" height="24" viewBox="0 0 24 24" fill="none">
<path fill-rule="evenodd" clip-rule="evenodd" d="M11.584 21.1866C7.45902 21.1866 4.11516 17.8408 4.11516 13.7136C4.11516 10.9623 6.60478 7.32105 11.584 2.79138C16.5636 7.32105 19.0532 10.9623 19.0532 13.7136C19.0532 17.8408 15.7378 21.1866 11.584 21.1866ZM12.1592 13.4206H13.8851C14.2024 13.139 14.6337 12.8815 14.6337 12.5642C14.6368 12.2465 14.2031 11.989 13.8861 11.9887C13.8857 11.9887 13.8854 11.9887 13.8851 11.9887H12.4073L13.8497 10.5479C14.074 10.3229 14.0737 10.0954 13.849 9.73443C13.6244 9.5098 13.2602 9.51012 13.0359 9.73475L11.6888 11.0816L10.4606 9.73475C10.1167 9.51012 9.75249 9.5098 9.52786 9.73443C9.30323 10.0954 9.30291 10.3229 9.52723 10.5479L11.049 11.9887H9.28298C8.96596 11.9887 8.70874 12.2462 8.70874 12.5639C8.70874 12.8812 8.96596 13.4206 9.28298 13.4206H11.0092V14.2885H9.28298C8.96596 14.2885 8.70874 14.5457 8.70874 14.8633C8.70874 15.1807 8.96596 15.4379 9.28298 15.4379H11.0092V17.4767C11.0092 17.8025 11.2664 17.8206 11.5837 17.8206H11.5847C11.902 17.8206 12.1592 17.8025 12.1592 17.4767V15.4379H13.8851C14.2024 15.4379 14.6305 15.1807 14.6305 14.8633C14.6305 14.5457 14.2024 14.2885 13.8851 14.2885H12.1592V13.4206Z" fill="#65A7F7"/>
</svg>