<svg xmlns="http://www.w3.org/2000/svg" width="24" height="24" viewBox="0 0 24 24" fill="none">
<path fill-rule="evenodd" clip-rule="evenodd" d="M10.1749 12.922L4.45163 11.6547C4.13537 11.5844 3.96297 11.2904 4.00672 10.9719C4.03575 10.8282 4.10831 10.7123 4.21228 10.6292L14.0652 2.77794C14.3452 2.57665 14.6874 2.67346 14.8899 2.86904C14.9859 2.98822 15.031 3.14576 15.0157 3.29184L14.2354 11.0614L19.9586 12.3286C20.2748 12.3987 20.474 12.7396 20.4035 13.0581C20.389 13.155 20.3019 13.271 20.198 13.3539L10.345 21.205C10.0921 21.4069 9.72283 21.366 9.52032 21.1144C9.42851 20.9951 9.38812 20.8432 9.3945 20.6911L10.1749 12.922ZM7.85842 9.08506C7.60651 9.28802 7.56765 9.68135 7.77151 9.9065C7.97541 10.1573 8.34489 10.2298 8.59675 9.99274C8.59684 9.99274 8.59707 9.99261 8.59716 9.99261L11.3332 7.78765C11.5851 7.5847 11.6344 7.21666 11.42 6.96604C11.2162 6.7156 10.8467 6.67679 10.6315 6.87975C10.6302 6.87975 10.6293 6.87993 10.6279 6.87993L7.85842 9.08506Z" fill="#F0D09E"/>
</svg>