<svg xmlns="http://www.w3.org/2000/svg" width="24" height="24" viewBox="0 0 24 24" fill="none">
<path fill-rule="evenodd" clip-rule="evenodd" d="M7.16503 2.66663H16.8351C17.4784 2.66663 18 3.1729 18 3.79723V20.2027C18 20.8271 17.4784 21.3333 16.8351 21.3333H7.16503C6.52152 21.3333 6 20.8272 6 20.2027V3.79723C6 3.1728 6.52152 2.66663 7.16503 2.66663ZM13.0787 4.08019H10.9213C10.7511 4.08019 10.6132 4.21404 10.6132 4.37932C10.6132 4.54452 10.7511 4.67848 10.9213 4.67848H13.0787C13.249 4.67848 13.387 4.54452 13.387 4.37932C13.387 4.21402 13.249 4.08019 13.0787 4.08019ZM12 20.446C11.4723 20.446 11.0446 20.0308 11.0446 19.5187C11.0446 19.0066 11.4723 18.5913 12 18.5913C12.5277 18.5913 12.9555 19.0065 12.9555 19.5187C12.9555 20.0308 12.5277 20.4459 12 20.4459V20.446ZM7.13033 17.8136H16.8696V5.66897H7.13033V17.8136Z" fill="#5BBB72"/>
</svg>