<svg preserveAspectRatio="none" width="100%" height="100%" overflow="visible" style="display: block;" viewBox="0 0 16.8337 21.5342" fill="none" xmlns="http://www.w3.org/2000/svg">
<g id="&#231;&#188;&#150;&#231;&#187;&#132;">
<path id="Fill 47" fill-rule="evenodd" clip-rule="evenodd" d="M8.61677 11.324H2.84822C1.97757 11.324 1.16752 10.9339 0.623539 10.2541C0.0802552 9.57433 -0.121038 8.69741 0.0712005 7.84836L1.34652 2.21841C1.64185 0.912438 2.78414 0 4.12354 0H6.79747C7.10463 0 7.35468 0.249353 7.35468 0.557214C7.35468 0.865075 7.10463 1.11443 6.79747 1.11443H4.12354C3.30861 1.11443 2.61349 1.66955 2.43379 2.46428L1.15846 8.09423C1.04145 8.61104 1.16404 9.14458 1.49419 9.55831C1.82503 9.97274 2.31817 10.2096 2.84822 10.2096H8.61677C9.14682 10.2096 9.63996 9.97274 9.97011 9.55831C10.301 9.14458 10.4235 8.61104 10.3065 8.09423L9.8503 6.08199C9.78274 5.78109 9.9708 5.48299 10.271 5.41542C10.5712 5.34577 10.8693 5.53522 10.9376 5.83542L11.3931 7.84836C11.586 8.69741 11.3847 9.57433 10.8408 10.2541C10.2975 10.9339 9.48742 11.324 8.61677 11.324" fill="var(--fill-0, #607088)"/>
<path id="Fill 49" fill-rule="evenodd" clip-rule="evenodd" d="M9.49223 11.324C8.6773 11.324 7.98218 11.8791 7.80247 12.6738L6.52715 18.3045C6.41014 18.8213 6.53272 19.3548 6.86357 19.7686C7.19372 20.1823 7.68755 20.4198 8.2176 20.4198H13.9855C14.5155 20.4198 15.0086 20.1823 15.3395 19.7686C15.6696 19.3548 15.7922 18.8213 15.6752 18.3045L14.4006 12.6738C14.2202 11.8791 13.5251 11.324 12.7108 11.324H9.49223ZM13.9855 21.5342H8.2176C7.34695 21.5342 6.53621 21.1442 5.99292 20.4644C5.44894 19.7839 5.24765 18.907 5.44058 18.0579L6.71591 12.428C7.01053 11.122 8.15282 10.2096 9.49223 10.2096H12.7108C14.0495 10.2096 15.1911 11.122 15.4872 12.428L16.7625 18.0579C16.9547 18.907 16.7534 19.7839 16.2101 20.4644C15.6662 21.1442 14.8561 21.5342 13.9855 21.5342V21.5342Z" fill="var(--fill-0, #607088)"/>
</g>
</svg>
