<svg preserveAspectRatio="xMidYMid meet" width="100%" height="100%" overflow="visible" style="display: block;" viewBox="0 0 23.4239 24.5523" fill="none" xmlns="http://www.w3.org/2000/svg">
<g id="&#231;&#188;&#150;&#231;&#187;&#132;">
<path id="Fill 59" fill-rule="evenodd" clip-rule="evenodd" d="M4.07867 24.5523C3.87668 24.5523 3.68166 24.4423 3.58275 24.25C3.44206 23.9763 3.54932 23.6406 3.82305 23.4999L7.00544 21.8596C7.53827 21.5838 8.14982 21.5259 8.72514 21.6938L14.1378 23.2791C15.2125 23.5932 16.3694 23.3543 17.2324 22.6376L22.014 18.6633C22.3476 18.386 22.4075 17.895 22.1505 17.546C21.8977 17.2027 21.431 17.1114 21.066 17.3315L16.5157 20.0862C15.9891 20.4052 15.349 20.4826 14.7598 20.2959L12.0308 19.4336C11.8037 19.3619 11.647 19.1529 11.6415 18.9147C11.6366 18.6758 11.7835 18.4606 12.0078 18.3791L14.4122 17.5001C14.7974 17.3594 15.0558 16.9895 15.0558 16.5793C15.0558 16.0388 14.6156 15.5993 14.0758 15.5993H7.61002L0.796682 18.836C0.516682 18.969 0.18514 18.8492 0.0541945 18.572C-0.0781438 18.2941 0.0402642 17.9619 0.318175 17.8295L7.24504 14.5392C7.31957 14.5037 7.40176 14.4848 7.48464 14.4848H14.0758C15.2306 14.4848 16.1695 15.4244 16.1695 16.5793C16.1695 17.4562 15.6165 18.246 14.7946 18.5462L13.9267 18.8639L15.0955 19.2337C15.3783 19.3229 15.6854 19.2859 15.939 19.1327L20.4893 16.378C21.3488 15.8577 22.4493 16.0743 23.0469 16.8843C23.6543 17.709 23.5136 18.8666 22.7265 19.5207L17.9449 23.4943C16.7964 24.4492 15.2571 24.7668 13.825 24.3482L8.4124 22.7637C8.11429 22.6773 7.79459 22.7065 7.51668 22.85L4.3329 24.4903C4.25141 24.5321 4.16434 24.5523 4.07867 24.5523" fill="var(--fill-0, #607088)"/>
<path id="Fill 61" fill-rule="evenodd" clip-rule="evenodd" d="M21.5828 14.4416C21.5201 14.4416 21.4567 14.4311 21.3947 14.4089C21.105 14.3051 20.9545 13.9861 21.0583 13.6963C21.4226 12.6794 21.6072 11.6116 21.6072 10.523C21.6072 5.33532 17.387 1.11443 12.1986 1.11443C7.01094 1.11443 2.79074 5.33532 2.79074 10.523C2.79074 11.6116 2.97532 12.6794 3.3396 13.6963C3.44338 13.9861 3.29223 14.3051 3.00248 14.4089C2.71412 14.5133 2.39373 14.3622 2.29064 14.0717C1.88318 12.9343 1.67631 11.7405 1.67631 10.523C1.67631 4.7203 6.39661 5.36442e-07 12.1986 5.36442e-07C18.0006 5.36442e-07 22.7216 4.7203 22.7216 10.523C22.7216 11.7405 22.5147 12.9343 22.1073 14.0717C22.0258 14.2995 21.8112 14.4416 21.5828 14.4416" fill="var(--fill-0, #607088)"/>
</g>
</svg>
