<svg preserveAspectRatio="none" width="100%" height="100%" overflow="visible" style="display: block;" viewBox="0 0 21.9911 22.4321" fill="none" xmlns="http://www.w3.org/2000/svg">
<g id="&#231;&#188;&#150;&#231;&#187;&#132;">
<path id="Fill 27" fill-rule="evenodd" clip-rule="evenodd" d="M0.557867 9.60846C0.520255 9.60846 0.482643 9.60498 0.444335 9.59662C0.142742 9.53463 -0.0508894 9.24 0.0117972 8.93841C1.08025 3.7591 5.69956 1.63913e-07 10.9952 1.63913e-07C16.2915 1.63913e-07 20.9108 3.7591 21.9793 8.93841C22.0134 9.10209 21.9716 9.27343 21.8657 9.40298C21.7599 9.53323 21.6011 9.60846 21.4339 9.60846H17.4944C17.1872 9.60846 16.9379 9.3591 16.9379 9.05124C16.9379 8.74338 17.1872 8.49403 17.4944 8.49403H20.7255C19.5206 4.1791 15.5337 1.11373 10.9952 1.11373C6.22613 1.11373 2.06513 4.4995 1.10254 9.16338C1.04822 9.42736 0.816275 9.60846 0.557867 9.60846" fill="var(--fill-0, #607088)"/>
<path id="Fill 29" fill-rule="evenodd" clip-rule="evenodd" d="M10.9955 22.4321C5.69914 22.4321 1.08053 18.673 0.0113793 13.4937C-0.0220536 13.3293 0.019041 13.1587 0.125608 13.0291C0.230782 12.8989 0.389588 12.8237 0.557449 12.8237H4.49625C4.80342 12.8237 5.05347 13.073 5.05347 13.3809C5.05347 13.6887 4.80342 13.9381 4.49625 13.9381H1.26511C2.47078 18.253 6.45695 21.3177 10.9955 21.3177C15.7652 21.3177 19.9255 17.9326 20.8881 13.268C20.9501 12.9664 21.2447 12.7728 21.5463 12.8348C21.8479 12.8975 22.0415 13.1921 21.9795 13.4937C20.9104 18.673 16.2918 22.4321 10.9955 22.4321" fill="var(--fill-0, #607088)"/>
</g>
</svg>
