<svg preserveAspectRatio="none" width="100%" height="100%" overflow="visible" style="display: block;" viewBox="0 0 23.2024 23.2631" fill="none" xmlns="http://www.w3.org/2000/svg">
<g id="&#231;&#188;&#150;&#231;&#187;&#132;">
<path id="Fill 21" fill-rule="evenodd" clip-rule="evenodd" d="M11.5703 0C10.1139 0 9.38599 0.681194 8.79534 1.32408C8.71176 1.27811 8.62052 1.22935 8.52579 1.1799C8.03057 0.922886 7.45106 0.718109 6.87992 0.718109C6.74201 0.718109 6.6048 0.72995 6.46967 0.756418C5.65405 0.912438 5.1839 1.62428 5.1839 2.43015C5.1839 3.61214 6.01136 4.61791 6.99903 5.34577C7.50679 5.7191 8.05634 6.01861 8.55783 6.23174C9.57893 6.66498 10.6899 6.87254 11.7973 6.87254C13.4321 6.87254 15.0515 6.29234 16.3233 5.26637C17.3757 4.41731 19.1052 2.48726 17.7066 1.20289C17.3005 0.829552 16.76 0.746667 16.2279 0.746667C16.0398 0.746667 15.8525 0.766866 15.6644 0.80796C15.2918 0.889453 14.9198 1.05104 14.5521 1.29204C14.263 0.969552 13.9419 0.707662 13.5888 0.504975C13.0023 0.169254 12.3274 0 11.5703 0M11.5703 1.11443C12.1351 1.11443 12.6143 1.23144 13.035 1.47244C13.283 1.61453 13.5142 1.80398 13.7218 2.03522L14.3605 2.74915L15.1622 2.22468C15.415 2.05891 15.6637 1.94886 15.9019 1.89731C16.0113 1.87294 16.1206 1.86109 16.2279 1.86109C16.5963 1.86109 16.8339 1.91403 16.953 2.02408C17.1083 2.16617 17.1187 2.26438 17.1159 2.35284C17.0999 2.84527 16.4584 3.72498 15.6233 4.3992C14.5367 5.27542 13.1785 5.75811 11.7973 5.75811C10.8152 5.75811 9.84569 5.56726 8.99315 5.20577C8.66649 5.06716 8.16917 4.82338 7.66002 4.44796C7.15156 4.07393 6.29833 3.31403 6.29833 2.43015C6.29833 2.31104 6.32619 1.91821 6.67932 1.85065C6.74131 1.83881 6.80888 1.83254 6.87992 1.83254C7.19684 1.83254 7.58828 1.94886 8.01176 2.16896C8.09952 2.21493 8.1845 2.2595 8.26181 2.30199L9.02659 2.7199L9.61654 2.07771C10.1347 1.51353 10.5777 1.11443 11.5703 1.11443" fill="var(--fill-0, #607088)"/>
<path id="Fill 23" fill-rule="evenodd" clip-rule="evenodd" d="M11.6374 23.2631H11.565C8.41184 23.2631 5.73582 22.9267 3.82597 22.2894C2.69901 21.9133 1.80746 21.4236 1.17642 20.8344C0.395622 20.103 0 19.2317 0 18.244C0 17.7091 0.120498 17.1992 0.359403 16.7263C0.335721 16.183 0.367761 15.639 0.396318 15.1543C0.431144 14.5622 0.491045 13.9862 0.573234 13.4443C0.65403 12.9087 0.760597 12.3807 0.888756 11.8772L0.913831 11.7782C1.02597 11.3429 1.15134 10.8484 1.35612 10.404C1.49821 10.0941 1.64239 9.80153 1.78726 9.52641C1.93005 9.25477 2.26577 9.1489 2.5395 9.29238C2.81254 9.43586 2.91701 9.77228 2.77353 10.0446C2.63841 10.303 2.50259 10.5775 2.36886 10.8693C2.20587 11.2224 2.09861 11.6452 1.99413 12.0534L1.96905 12.153C1.84925 12.621 1.75104 13.1114 1.67512 13.6115C1.59781 14.1206 1.54209 14.6611 1.50935 15.2204C1.4794 15.7212 1.44597 16.2882 1.4801 16.8162C1.48706 16.9241 1.46199 17.0321 1.40836 17.1268C1.21333 17.4716 1.11443 17.847 1.11443 18.244C1.11443 18.921 1.38328 19.5019 1.93771 20.0201C2.45104 20.4993 3.20468 20.9075 4.17841 21.2321C5.97612 21.8318 8.53025 22.1487 11.565 22.1487H11.6374C14.6707 22.1487 17.2249 21.8318 19.0233 21.2321C19.9977 20.9068 20.752 20.4993 21.2633 20.0201C21.8184 19.5019 22.088 18.921 22.088 18.244C22.088 17.847 21.9884 17.4716 21.7933 17.1268C21.739 17.0321 21.7146 16.9227 21.7223 16.8141C21.7286 16.7075 21.732 16.5981 21.732 16.4874C21.732 15.6474 21.6847 14.8346 21.59 14.0705C21.4437 12.8899 21.1839 11.8012 20.8189 10.8345C19.694 8.39457 18.4974 7.18611 17.6936 6.6087C17.4631 6.44293 17.1692 6.45059 16.963 6.62472C14.746 8.50044 11.6625 9.15168 9.10905 8.28103C8.09562 7.93556 7.12955 7.37835 6.2394 6.62472C6.03254 6.44989 5.7393 6.44293 5.50806 6.6087C5.09154 6.9082 4.67363 7.30312 4.26756 7.78233C4.06766 8.01775 3.71592 8.04492 3.48189 7.8471C3.24716 7.6486 3.21861 7.29686 3.41711 7.06213C3.88239 6.51327 4.36716 6.05636 4.85821 5.70392C5.50109 5.24213 6.36547 5.27138 6.95891 5.77357C7.74318 6.43735 8.58736 6.92561 9.46846 7.22651C11.659 7.97178 14.3183 7.40273 16.2428 5.77357C16.8369 5.27069 17.6999 5.24143 18.3442 5.70392C19.2566 6.36004 20.6051 7.7078 21.8456 10.404C22.2579 11.4899 22.5386 12.6656 22.696 13.9333C22.7963 14.7433 22.8465 15.6021 22.8465 16.4874C22.8465 16.5675 22.8451 16.6469 22.8423 16.7256C23.0812 17.1985 23.2024 17.7084 23.2024 18.244C23.2024 19.2324 22.8061 20.1037 22.0246 20.8344C21.3956 21.4229 20.5034 21.9133 19.375 22.2894C17.4652 22.9267 14.7892 23.2631 11.6374 23.2631" fill="var(--fill-0, #607088)"/>
</g>
</svg>
