<svg preserveAspectRatio="none" width="100%" height="100%" overflow="visible" style="display: block;" viewBox="0 0 25.5965 19.2483" fill="none" xmlns="http://www.w3.org/2000/svg">
<g id="&#231;&#188;&#150;&#231;&#187;&#132;">
<path id="Fill 11" fill-rule="evenodd" clip-rule="evenodd" d="M22.8395 19.2483H2.75682C1.23633 19.2483 8.9407e-06 18.0112 8.9407e-06 16.4914C8.9407e-06 16.1836 0.249362 15.9342 0.557223 15.9342C0.864387 15.9342 1.11444 16.1836 1.11444 16.4914C1.11444 17.3969 1.85066 18.1338 2.75682 18.1338H22.8395C23.7457 18.1338 24.4819 17.3969 24.4819 16.4914V2.75682C24.4819 1.85065 23.7457 1.11373 22.8395 1.11373H2.75682C1.85066 1.11373 1.11444 1.85065 1.11444 2.75682V13.2129C1.11444 13.5208 0.864387 13.7701 0.557223 13.7701C0.249362 13.7701 8.9407e-06 13.5208 8.9407e-06 13.2129V2.75682C8.9407e-06 1.23702 1.23633 4.47035e-07 2.75682 4.47035e-07H22.8395C24.36 4.47035e-07 25.5963 1.23702 25.5963 2.75682V16.4914C25.5963 18.0112 24.36 19.2483 22.8395 19.2483" fill="var(--fill-0, #607088)"/>
<path id="Fill 13" fill-rule="evenodd" clip-rule="evenodd" d="M25.0393 6.29673H0.557362C0.249501 6.29673 0.000148237 6.04737 0.000148237 5.73951C0.000148237 5.43165 0.249501 5.1823 0.557362 5.1823H25.0393C25.3464 5.1823 25.5965 5.43165 25.5965 5.73951C25.5965 6.04737 25.3464 6.29673 25.0393 6.29673" fill="var(--fill-0, #607088)"/>
</g>
</svg>
