<svg preserveAspectRatio="none" width="100%" height="100%" overflow="visible" style="display: block;" viewBox="0 0 12.3486 22.8298" fill="none" xmlns="http://www.w3.org/2000/svg">
<g id="&#231;&#188;&#150;&#231;&#187;&#132;">
<mask id="mask0_0_172" style="mask-type:luminance" maskUnits="userSpaceOnUse" x="0" y="0" width="13" height="23">
<path id="Clip 58" fill-rule="evenodd" clip-rule="evenodd" d="M6.42121 0C2.88011 0 1.37985e-05 2.8801 1.37985e-05 6.42119V6.42119V22.2725C1.37985e-05 22.5804 0.249367 22.8298 0.557228 22.8298V22.8298C0.864392 22.8298 1.11375 22.5804 1.11375 22.2725V22.2725V6.42119C1.11375 3.49443 3.49514 1.11373 6.42121 1.11373V1.11373H11.2341V1.60896C11.2341 4.53572 8.85275 6.91642 5.92598 6.91642V6.91642H3.12389C2.81603 6.91642 2.56668 7.16647 2.56668 7.47363V7.47363C2.56668 7.78149 2.81603 8.03085 3.12389 8.03085V8.03085H5.92598C9.46708 8.03085 12.3486 5.15005 12.3486 1.60896V1.60896V0.556517C12.3486 0.248657 12.0985 0 11.7921 0V0H6.42121Z" fill="var(--fill-0, white)"/>
</mask>
<g mask="url(#mask0_0_172)">
<path id="Fill 57" fill-rule="evenodd" clip-rule="evenodd" d="M6.42121 0C2.88011 0 1.37985e-05 2.8801 1.37985e-05 6.42119V6.42119V22.2725C1.37985e-05 22.5804 0.249367 22.8298 0.557228 22.8298V22.8298C0.864392 22.8298 1.11375 22.5804 1.11375 22.2725V22.2725V6.42119C1.11375 3.49443 3.49514 1.11373 6.42121 1.11373V1.11373H11.2341V1.60896C11.2341 4.53572 8.85275 6.91642 5.92598 6.91642V6.91642H3.12389C2.81603 6.91642 2.56668 7.16647 2.56668 7.47363V7.47363C2.56668 7.78149 2.81603 8.03085 3.12389 8.03085V8.03085H5.92598C9.46708 8.03085 12.3486 5.15005 12.3486 1.60896V1.60896V0.556517C12.3486 0.248657 12.0985 0 11.7921 0V0H6.42121Z" fill="url(#paint0_linear_0_172)"/>
</g>
</g>
<defs>
<linearGradient id="paint0_linear_0_172" x1="-0.000296361" y1="22.8297" x2="12.3486" y2="22.8297" gradientUnits="userSpaceOnUse">
<stop stop-color="#EBC675"/>
<stop offset="1" stop-color="#D4B179"/>
</linearGradient>
</defs>
</svg>
