<svg preserveAspectRatio="xMidYMid meet" width="100%" height="100%" overflow="visible" style="display: block;" viewBox="0 0 22.8065 22.8068" fill="none" xmlns="http://www.w3.org/2000/svg">
<g id="&#231;&#188;&#150;&#231;&#187;&#132;">
<mask id="mask0_0_115" style="mask-type:luminance" maskUnits="userSpaceOnUse" x="0" y="0" width="23" height="23">
<path id="Clip 42" fill-rule="evenodd" clip-rule="evenodd" d="M1.90139e-05 0H22.8065V22.8068H1.90139e-05V0Z" fill="var(--fill-0, white)"/>
</mask>
<g mask="url(#mask0_0_115)">
<path id="Fill 41" fill-rule="evenodd" clip-rule="evenodd" d="M11.4034 22.8068C5.11594 22.8068 1.90139e-05 17.6915 1.90139e-05 11.4034C1.90139e-05 5.11592 5.11594 0 11.4034 0C12.809 0 14.1811 0.252836 15.4829 0.751542C15.7713 0.862289 15.9147 1.18408 15.804 1.47174C15.6939 1.7594 15.3687 1.90358 15.0845 1.79284C13.9109 1.34289 12.6718 1.11443 11.4034 1.11443C5.72957 1.11443 1.11445 5.73025 1.11445 11.4034C1.11445 17.0765 5.72957 21.6923 11.4034 21.6923C17.0772 21.6923 21.6924 17.0765 21.6924 11.4034C21.6924 9.15642 20.9812 7.02159 19.6355 5.23085C19.451 4.98498 19.5004 4.63532 19.747 4.45075C19.9929 4.26478 20.3425 4.31562 20.5271 4.56149C22.0183 6.54726 22.8068 8.91333 22.8068 11.4034C22.8068 17.6915 17.6909 22.8068 11.4034 22.8068" fill="var(--fill-0, #607088)"/>
</g>
</g>
</svg>
