<svg preserveAspectRatio="xMidYMid meet" width="100%" height="100%" overflow="visible" style="display: block;" viewBox="0 0 7.95494 10.0319" fill="none" xmlns="http://www.w3.org/2000/svg">
<g id="&#231;&#188;&#150;&#231;&#187;&#132;">
<mask id="mask0_0_118" style="mask-type:luminance" maskUnits="userSpaceOnUse" x="0" y="0" width="8" height="11">
<path id="Clip 36" fill-rule="evenodd" clip-rule="evenodd" d="M1.28438 0.151842C1.0601 0.362191 1.04896 0.715325 1.2607 0.939604V0.939604L2.68786 2.45523H0.557214C0.249353 2.45523 0 2.70458 0 3.01244V3.01244C0 3.3203 0.249353 3.56965 0.557214 3.56965V3.56965H3.4206V5.43632H0.557214C0.249353 5.43632 0 5.68567 0 5.99353V5.99353C0 6.30139 0.249353 6.55005 0.557214 6.55005V6.55005H3.4206V9.47473C3.4206 9.78259 3.66995 10.0319 3.97711 10.0319V10.0319C4.28498 10.0319 4.53433 9.78259 4.53433 9.47473V9.47473V6.55005H7.39702C7.70488 6.55005 7.95493 6.30139 7.95493 5.99353V5.99353C7.95493 5.68567 7.70488 5.43632 7.39702 5.43632V5.43632H4.53433V3.56965H7.39702C7.70488 3.56965 7.95493 3.3203 7.95493 3.01244V3.01244C7.95493 2.70458 7.70488 2.45523 7.39702 2.45523V2.45523H5.26706L6.69423 0.939604C6.90527 0.715325 6.89413 0.362191 6.66985 0.151842V0.151842C6.44627 -0.0592023 6.09383 -0.0487546 5.88209 0.175524V0.175524L3.97711 2.19891L2.07144 0.175524C1.96209 0.0585091 1.81443 1.66893e-06 1.66677 1.66893e-06V1.66893e-06C1.52955 1.66893e-06 1.39234 0.0501509 1.28438 0.151842" fill="var(--fill-0, white)"/>
</mask>
<g mask="url(#mask0_0_118)">
<path id="Fill 35" fill-rule="evenodd" clip-rule="evenodd" d="M1.28438 0.151842C1.0601 0.362191 1.04896 0.715325 1.2607 0.939604V0.939604L2.68786 2.45523H0.557214C0.249353 2.45523 0 2.70458 0 3.01244V3.01244C0 3.3203 0.249353 3.56965 0.557214 3.56965V3.56965H3.4206V5.43632H0.557214C0.249353 5.43632 0 5.68567 0 5.99353V5.99353C0 6.30139 0.249353 6.55005 0.557214 6.55005V6.55005H3.4206V9.47473C3.4206 9.78259 3.66995 10.0319 3.97711 10.0319V10.0319C4.28498 10.0319 4.53433 9.78259 4.53433 9.47473V9.47473V6.55005H7.39702C7.70488 6.55005 7.95493 6.30139 7.95493 5.99353V5.99353C7.95493 5.68567 7.70488 5.43632 7.39702 5.43632V5.43632H4.53433V3.56965H7.39702C7.70488 3.56965 7.95493 3.3203 7.95493 3.01244V3.01244C7.95493 2.70458 7.70488 2.45523 7.39702 2.45523V2.45523H5.26706L6.69423 0.939604C6.90527 0.715325 6.89413 0.362191 6.66985 0.151842V0.151842C6.44627 -0.0592023 6.09383 -0.0487546 5.88209 0.175524V0.175524L3.97711 2.19891L2.07144 0.175524C1.96209 0.0585091 1.81443 1.66893e-06 1.66677 1.66893e-06V1.66893e-06C1.52955 1.66893e-06 1.39234 0.0501509 1.28438 0.151842" fill="url(#paint0_linear_0_118)"/>
</g>
</g>
<defs>
<linearGradient id="paint0_linear_0_118" x1="-0.000321025" y1="10.0319" x2="7.95453" y2="10.0319" gradientUnits="userSpaceOnUse">
<stop stop-color="#EBC675"/>
<stop offset="1" stop-color="#D4B179"/>
</linearGradient>
</defs>
</svg>
