<svg preserveAspectRatio="none" width="100%" height="100%" overflow="visible" style="display: block;" viewBox="0 0 6.31562 11.4229" fill="none" xmlns="http://www.w3.org/2000/svg">
<g id="&#231;&#188;&#150;&#231;&#187;&#132;">
<mask id="mask0_0_139" style="mask-type:luminance" maskUnits="userSpaceOnUse" x="0" y="0" width="7" height="12">
<path id="Clip 52" fill-rule="evenodd" clip-rule="evenodd" d="M4.27258 0.163682L0.360239 4.07602C0.00780109 4.42706 -0.0966765 4.95224 0.0941693 5.41264V5.41264C0.283622 5.87373 0.728697 6.17045 1.2274 6.17045V6.17045H5.0875C5.10631 6.17045 5.16342 6.17045 5.19198 6.2401V6.2401C5.22123 6.30975 5.18084 6.35015 5.1676 6.36269V6.36269L1.05954 10.4707C0.841532 10.6888 0.841532 11.0419 1.05954 11.2599V11.2599C1.1682 11.3679 1.31099 11.4229 1.45377 11.4229V11.4229C1.59656 11.4229 1.73795 11.3679 1.8473 11.2599V11.2599L5.95606 7.15045C6.3078 6.79801 6.41228 6.27353 6.22143 5.81313V5.81313C6.03128 5.35413 5.58551 5.05602 5.0875 5.05602V5.05602H1.2274C1.20929 5.05602 1.15218 5.05602 1.12362 4.98637V4.98637C1.09506 4.91741 1.13546 4.87771 1.148 4.86378V4.86378L5.06034 0.951443C5.27835 0.734129 5.27835 0.380995 5.06034 0.163682V0.163682C4.95168 0.0550249 4.80959 0 4.66681 0V0C4.52402 0 4.38193 0.0550249 4.27258 0.163682" fill="var(--fill-0, white)"/>
</mask>
<g mask="url(#mask0_0_139)">
<path id="Fill 51" fill-rule="evenodd" clip-rule="evenodd" d="M4.27258 0.163682L0.360239 4.07602C0.00780109 4.42706 -0.0966765 4.95224 0.0941693 5.41264V5.41264C0.283622 5.87373 0.728697 6.17045 1.2274 6.17045V6.17045H5.0875C5.10631 6.17045 5.16342 6.17045 5.19198 6.2401V6.2401C5.22123 6.30975 5.18084 6.35015 5.1676 6.36269V6.36269L1.05954 10.4707C0.841532 10.6888 0.841532 11.0419 1.05954 11.2599V11.2599C1.1682 11.3679 1.31099 11.4229 1.45377 11.4229V11.4229C1.59656 11.4229 1.73795 11.3679 1.8473 11.2599V11.2599L5.95606 7.15045C6.3078 6.79801 6.41228 6.27353 6.22143 5.81313V5.81313C6.03128 5.35413 5.58551 5.05602 5.0875 5.05602V5.05602H1.2274C1.20929 5.05602 1.15218 5.05602 1.12362 4.98637V4.98637C1.09506 4.91741 1.13546 4.87771 1.148 4.86378V4.86378L5.06034 0.951443C5.27835 0.734129 5.27835 0.380995 5.06034 0.163682V0.163682C4.95168 0.0550249 4.80959 0 4.66681 0V0C4.52402 0 4.38193 0.0550249 4.27258 0.163682" fill="url(#paint0_linear_0_139)"/>
</g>
</g>
<defs>
<linearGradient id="paint0_linear_0_139" x1="-8.00596e-05" y1="11.4229" x2="6.31559" y2="11.4229" gradientUnits="userSpaceOnUse">
<stop stop-color="#EBC675"/>
<stop offset="1" stop-color="#D4B179"/>
</linearGradient>
</defs>
</svg>
