<svg preserveAspectRatio="none" width="100%" height="100%" overflow="visible" style="display: block;" viewBox="0 0 21.4942 24.4889" fill="none" xmlns="http://www.w3.org/2000/svg">
<g id="&#231;&#188;&#150;&#231;&#187;&#132;">
<path id="Fill 1" fill-rule="evenodd" clip-rule="evenodd" d="M13.6011 24.4889H2.75772C1.23722 24.4889 0.000208955 23.2525 0.000208955 21.732V2.75682C0.000208955 1.23701 1.23722 0 2.75772 0H18.7365C20.257 0 21.494 1.23701 21.494 2.75682V16.1188C21.494 16.4267 21.2447 16.676 20.9368 16.676C20.6297 16.676 20.3796 16.4267 20.3796 16.1188V2.75682C20.3796 1.85134 19.6427 1.11373 18.7365 1.11373H2.75772C1.85155 1.11373 1.11394 1.85134 1.11394 2.75682V21.732C1.11394 22.6375 1.85155 23.3744 2.75772 23.3744H13.6011C13.9083 23.3744 14.1583 23.6238 14.1583 23.9316C14.1583 24.2395 13.9083 24.4889 13.6011 24.4889" fill="var(--fill-0, #607088)"/>
<g id="&#231;&#188;&#150;&#231;&#187;&#132;_2">
<mask id="mask0_0_154" style="mask-type:luminance" maskUnits="userSpaceOnUse" x="0" y="5" width="22" height="2">
<path id="Clip 4" fill-rule="evenodd" clip-rule="evenodd" d="M0 5.22249H21.4942V6.33692H0V5.22249Z" fill="var(--fill-0, white)"/>
</mask>
<g mask="url(#mask0_0_154)">
<path id="Fill 3" fill-rule="evenodd" clip-rule="evenodd" d="M20.937 6.33692H0.556935C0.249771 6.33692 -0.000278607 6.08756 -0.000278607 5.7797C-0.000278607 5.47184 0.249771 5.22249 0.556935 5.22249H20.937C21.2442 5.22249 21.4942 5.47184 21.4942 5.7797C21.4942 6.08756 21.2442 6.33692 20.937 6.33692" fill="var(--fill-0, #607088)"/>
</g>
</g>
<path id="Fill 5" fill-rule="evenodd" clip-rule="evenodd" d="M15.7832 11.3404H3.50223C3.19506 11.3404 2.94501 11.0911 2.94501 10.7832C2.94501 10.4753 3.19506 10.226 3.50223 10.226H15.7832C16.0904 10.226 16.3404 10.4753 16.3404 10.7832C16.3404 11.0911 16.0904 11.3404 15.7832 11.3404" fill="var(--fill-0, #607088)"/>
<path id="Fill 7" fill-rule="evenodd" clip-rule="evenodd" d="M10.3845 15.2294H3.50223C3.19506 15.2294 2.94501 14.9801 2.94501 14.6722C2.94501 14.3643 3.19506 14.115 3.50223 14.115H10.3845C10.6917 14.115 10.9417 14.3643 10.9417 14.6722C10.9417 14.9801 10.6917 15.2294 10.3845 15.2294" fill="var(--fill-0, #607088)"/>
</g>
</svg>
