<svg preserveAspectRatio="xMidYMid meet" width="100%" height="100%" overflow="visible" style="display: block;" viewBox="0 0 17.4168 16.8057" fill="none" xmlns="http://www.w3.org/2000/svg">
<g id="&#231;&#188;&#150;&#231;&#187;&#132;">
<path id="&#229;&#189;&#162;&#231;&#138;&#182;" fill-rule="evenodd" clip-rule="evenodd" d="M16.8489 7.8417H0.6732C0.2547 7.8417 0 8.0964 0 8.4096C0 8.7237 0.2547 8.9775 0.6732 8.9775H16.8489C17.1621 8.9775 17.4168 8.7237 17.4168 8.4096C17.4168 8.0964 17.1621 7.8417 16.8489 7.8417V7.8417ZM4.3254 5.0238C4.0113 5.0238 3.7575 5.2785 3.7575 5.5917C3.7575 5.9058 4.0113 6.1605 4.3254 6.1605H13.0914C13.4046 6.1605 13.6593 5.9058 13.6593 5.5917C13.6593 5.2785 13.4046 5.0238 13.0914 5.0238H4.3254ZM13.0914 11.7954C13.4055 11.7954 13.6593 11.5407 13.6593 11.2275C13.6593 10.9143 13.4055 10.6596 13.0914 10.6596H4.3254C4.0113 10.6596 3.7575 10.9143 3.7575 11.2275C3.7575 11.5407 4.0113 11.7954 4.3254 11.7954H13.0914ZM11.5263 1.1502H15.5457C15.7779 1.1502 15.9669 1.3401 15.9669 1.5723V5.5917C15.9669 5.9058 16.2216 6.1596 16.5348 6.1596C16.8489 6.1596 17.1027 5.9058 17.1027 5.5917V1.5723C17.1027 0.7137 16.4043 0.0144 15.5457 0.0144H11.5263C11.2122 0.0144 10.9584 0.2691 10.9584 0.5823C10.9584 0.8964 11.2122 1.1502 11.5263 1.1502V1.1502ZM0.8811 6.1452C1.1952 6.1452 1.449 5.8905 1.449 5.5773V1.5579C1.449 1.3248 1.6389 1.1358 1.8711 1.1358H5.8905C6.2046 1.1358 6.4584 0.8811 6.4584 0.5679C6.4584 0.2538 6.2046 0 5.8905 0H1.8711C1.0125 0 0.3132 0.6984 0.3132 1.5579V5.5773C0.3132 5.8905 0.6732 6.1452 0.8811 6.1452V6.1452ZM16.5357 10.6596C16.2216 10.6596 15.9678 10.9143 15.9678 11.2275V15.8148C15.9678 15.48 15.7779 15.669 15.5457 15.669H11.5263C11.2122 15.669 10.9584 15.9237 10.9584 16.2369C10.9584 16.551 11.2122 16.8048 11.5263 16.8048H15.5457C16.4043 16.8048 17.1036 16.3008 17.1036 15.8148V11.2275C17.1036 10.9143 16.8489 10.6596 16.5357 10.6596V10.6596ZM5.8905 15.669H1.8711C1.6389 15.669 1.449 15.48 1.449 15.8148V11.2275C1.449 10.9143 1.1952 10.6596 0.8811 10.6596C0.6732 10.6596 0.3132 10.9143 0.3132 11.2275V15.8148C0.3132 16.3008 1.0125 16.8057 1.8711 16.8057H5.8905C6.2037 16.8057 6.4584 16.5501 6.4584 16.2369C6.4584 15.9237 6.2037 15.669 5.8905 15.669V15.669Z" fill="var(--fill-0, white)"/>
</g>
</svg>
