<svg preserveAspectRatio="xMidYMid meet" width="100%" height="100%" overflow="visible" style="display: block;" viewBox="0 0 16.979 17.2632" fill="none" xmlns="http://www.w3.org/2000/svg">
<g id="&#231;&#188;&#150;&#231;&#187;&#132;">
<path id="&#229;&#189;&#162;&#231;&#138;&#182;" fill-rule="evenodd" clip-rule="evenodd" d="M4.70475 6.52144H2.14276C1.05042 6.52144 0.163036 5.63406 0.163036 4.54172V1.97972C0.163036 0.887382 1.05042 0 2.14276 0H4.70475C5.79709 0 6.68447 0.887382 6.68447 1.97972V4.54172C6.68447 5.63406 5.79709 6.52144 4.70475 6.52144ZM9.28141 5.85066V0.889711C9.28141 0.505412 8.96931 0.190985 8.58268 0.190985C8.19605 0.190985 7.88395 0.503082 7.88395 0.889711V5.85066C7.88395 6.23729 8.19605 6.54939 8.58268 6.54939C8.96931 6.54939 9.28141 6.23729 9.28141 5.85066ZM0.698726 9.36758H16.2803C16.6669 9.36758 16.979 9.05548 16.979 8.66886C16.979 8.28223 16.6669 7.97013 16.2803 7.97013H0.698726C0.312097 7.97013 0 8.28223 0 8.66886C0 9.05548 0.312097 9.36758 0.698726 9.36758ZM9.28141 11.8364V16.7974C9.28141 16.9511 8.96931 17.2632 8.58268 17.2632C8.19605 17.2632 7.88395 16.9511 7.88395 16.5645V11.6035C7.88395 11.2169 8.19605 10.9048 8.58268 10.9048C8.96931 10.9048 9.28141 11.2169 9.28141 11.8364ZM16.7834 16.3315V11.1377C16.7834 10.7511 16.4713 10.439 16.0847 10.439C15.698 10.439 15.3859 10.7511 15.3859 11.1377V16.3315C15.3859 16.7182 15.698 17.0303 16.0847 17.0303C16.4713 17.0303 16.7834 16.7182 16.7834 16.3315ZM14.4077 12.0693V16.3315C14.4077 16.7182 14.0956 17.0303 13.709 17.0303C13.3224 17.0303 13.0103 16.7182 13.0103 16.3315V12.0693C13.0103 11.6827 13.3224 11.3706 13.709 11.3706C14.0956 11.3706 14.4077 11.6827 14.4077 12.0693ZM12.1252 16.3315V13.001C12.1252 12.6143 11.8131 12.3022 11.4265 12.3022C11.0399 12.3022 10.7278 12.6143 10.7278 13.001V16.3315C10.7278 16.7182 11.0399 17.0303 11.4265 17.0303C11.8131 17.0303 12.1252 16.7182 12.1252 16.3315ZM1.32758 1.97972C1.32758 1.53021 1.69325 1.16454 2.14276 1.16454H4.70475C5.15427 1.16454 5.51993 1.53021 5.51993 1.97972V4.54172C5.51993 4.99123 5.15427 5.3569 4.70475 5.3569H2.14276C1.69325 5.3569 1.32758 4.99123 1.32758 4.54172V1.97972ZM4.68146 17.2119H2.11947C1.02713 17.2119 0.139745 16.3246 0.139745 15.2322V12.6702C0.139745 11.5779 1.02713 10.6905 2.11947 10.6905H4.68146C5.7738 10.6905 6.66118 11.5779 6.66118 12.6702V15.2322C6.66118 16.3246 5.7738 17.2119 4.68146 17.2119ZM1.30429 12.6702C1.30429 12.2207 1.66995 11.855 2.11947 11.855H4.68146C5.13098 11.855 5.49664 12.2207 5.49664 12.6702V15.2322C5.49664 15.6817 5.13098 16.0474 4.68146 16.0474H2.11947C1.66995 16.0474 1.30429 15.6817 1.30429 15.2322V12.6702ZM14.9667 6.5261H12.4047C11.3124 6.5261 10.425 5.63872 10.425 4.54637V1.98438C10.425 0.89204 11.3124 0.00465817 12.4047 0.00465817H14.9667C16.059 0.00465817 16.9464 0.89204 16.9464 1.98438V4.54637C16.9464 5.63639 16.0567 6.5261 14.9667 6.5261ZM11.5895 1.98438C11.5895 1.53487 11.9552 1.1692 12.4047 1.1692H14.9667C15.4162 1.1692 15.7819 1.53487 15.7819 1.98438V4.54637C15.7819 4.99589 15.4162 5.36155 14.9667 5.36155H12.4047C11.9552 5.36155 11.5895 4.99589 11.5895 4.54637V1.98438Z" fill="var(--fill-0, white)"/>
</g>
</svg>
