<svg preserveAspectRatio="xMidYMid meet" width="100%" height="100%" overflow="visible" style="display: block;" viewBox="0 0 17.9844 13.535" fill="none" xmlns="http://www.w3.org/2000/svg">
<g id="&#231;&#188;&#150;&#231;&#187;&#132;">
<path id="&#229;&#189;&#162;&#231;&#138;&#182;" fill-rule="evenodd" clip-rule="evenodd" d="M17.9844 12.4151C17.9844 12.8366 17.9042 13.1296 17.7396 13.2922C17.575 13.4547 17.3061 13.535 16.9288 13.535H1.05767C0.766662 13.535 0.527833 13.4547 0.339178 13.2922C0.11239 13.0915 0 12.8004 0 12.4151V1.02757C0 0.748599 0.110383 0.507763 0.329143 0.305059C0.547902 0.102355 0.792753 0 1.05567 0H16.9228C17.276 0 17.5409 0.0963345 17.7175 0.286997C17.8941 0.477659 17.9824 0.722509 17.9824 1.02957L17.9844 12.4151ZM5.75599 6.75947L1.05366 2.11535V11.5401L5.75599 6.75947ZM1.80828 1.00348H16.1822L10.1593 7.02038C9.63144 7.5462 9.2441 7.80911 8.99323 7.80911C8.74236 7.80911 8.35501 7.54821 7.82718 7.02038L1.80828 1.00348ZM16.1441 12.4051L11.4217 7.68268L10.649 8.44532C10.1974 8.89087 9.64549 9.11565 8.99323 9.11565C8.33895 9.11565 7.78905 8.89087 7.33748 8.44532L6.56479 7.68268L1.8424 12.4051H16.1441ZM16.9328 2.11535V11.5401L12.2305 6.75947L16.9328 2.11535Z" fill="var(--fill-0, white)"/>
</g>
</svg>
