<svg xmlns="http://www.w3.org/2000/svg" width="24" height="24" viewBox="0 0 24 24" fill="none">
<rect opacity="0.353516" width="24" height="24" rx="8" fill="#E7D2B2"/>
<path fill-rule="evenodd" clip-rule="evenodd" d="M18.9997 7.99138V8.98304H5V7.99138C5 7.44596 5.44975 7 5.99983 7H17.9999C18.55 7 18.9997 7.44596 18.9997 7.99138ZM18.9997 9.975V15.9247C18.9997 16.4701 18.55 16.9164 17.9999 16.9164H5.99983C5.44975 16.9164 5 16.4701 5 15.9247V9.975H18.9997ZM7.99979 13.9414H5.99983V14.4372H7.99979V13.9414ZM9.99975 12.9497H5.99983V13.7054H9.99975V12.9497Z" fill="#2470EA"/>
<path fill-rule="evenodd" clip-rule="evenodd" d="M18.9997 8.98304V7.99138C18.9997 7.44596 18.55 7 17.9999 7H5.99983C5.44975 7 5 7.44596 5 7.99138V8.98304H18.9997ZM18.9997 15.9247V9.975H5V15.9247C5 16.4701 5.44975 16.9164 5.99983 16.9164H17.9999C18.55 16.9164 18.9997 16.4701 18.9997 15.9247ZM7.99979 13.9414H5.99983V14.4372H7.99979V13.9414ZM5.99983 12.9497H9.99975V13.7054H5.99983V12.9497Z" fill="url(#paint0_linear_2_3698)"/>
<defs>
<linearGradient id="paint0_linear_2_3698" x1="11.1159" y1="15.1965" x2="19.6034" y2="3.54826" gradientUnits="userSpaceOnUse">
<stop stop-color="#A3BDED" stop-opacity="0.39"/>
<stop offset="1" stop-color="#6991C7" stop-opacity="0.39"/>
</linearGradient>
</defs>
</svg>