<svg xmlns="http://www.w3.org/2000/svg" width="24" height="24" viewBox="0 0 24 24" fill="none">
<rect opacity="0.353516" width="24" height="24" rx="8" fill="#E7D2B2"/>
<path fill-rule="evenodd" clip-rule="evenodd" d="M9.87609 12.0876H8.91154V11.0443H11.0288L11.097 10.8031L9.31667 8.84948L9.80288 8.16203L11.7929 10.1279L15.6024 6.36536C14.5279 5.66565 13.246 5.25586 11.8539 5.25586C8.08117 5.25586 5.16625 8.28278 5.16625 12.0876C5.16625 13.3718 5.43167 14.7534 6.13984 15.7109L9.87609 12.0876ZM5.78575 17.4356L6.69167 18.123L7.44621 17.1702C8.63067 18.1589 10.1812 18.7621 11.8539 18.7621C15.6269 18.7621 18.6914 15.7352 18.6914 12.0876C18.6914 10.3449 18.081 8.82557 17.0677 7.81173L17.9588 6.88132L17.3813 6.07603M14.772 13.9385H12.3547V16.8569H11.3779V13.9385H10.7062L12.3547 12.4784V12.9737H14.772V13.9385ZM14.772 12.0876H12.6598L13.6365 11.0443H14.772V12.0876Z" fill="#2470EA"/>
<path fill-rule="evenodd" clip-rule="evenodd" d="M8.91154 12.0876H9.87609L6.13984 15.7109C5.43167 14.7534 5.16625 13.3718 5.16625 12.0876C5.16625 8.28278 8.08117 5.25586 11.8539 5.25586C13.246 5.25586 14.5279 5.66565 15.6024 6.36536L11.7929 10.1279L9.80288 8.16203L9.31667 8.84948L11.097 10.8031L11.0288 11.0443H8.91154V12.0876ZM6.69167 18.123L5.78575 17.4356L17.3813 6.07603L17.9588 6.88132L17.0677 7.81173C18.081 8.82557 18.6914 10.3449 18.6914 12.0876C18.6914 15.7352 15.6269 18.7621 11.8539 18.7621C10.1812 18.7621 8.63067 18.1589 7.44621 17.1702L6.69167 18.123ZM14.772 13.9385H12.3547V16.8569H11.3779V13.9385H10.7062L12.3547 12.4784V12.9737H14.772V13.9385ZM12.6598 12.0876H14.772V11.0443H13.6365L12.6598 12.0876Z" fill="url(#paint0_linear_2_3692)"/>
<defs>
<linearGradient id="paint0_linear_2_3692" x1="8.13909" y1="17.2439" x2="20.2888" y2="11.2931" gradientUnits="userSpaceOnUse">
<stop stop-color="#A3BDED" stop-opacity="0.39"/>
<stop offset="1" stop-color="#6991C7" stop-opacity="0.39"/>
</linearGradient>
</defs>
</svg>