<svg xmlns="http://www.w3.org/2000/svg" width="24" height="24" viewBox="0 0 24 24" fill="none">
<rect opacity="0.353516" width="24" height="24" rx="8" fill="#E7D2B2"/>
<path fill-rule="evenodd" clip-rule="evenodd" d="M17.7054 7.04403L17.3221 6.98803C17.3098 6.98803 15.9523 6.93539 14.5646 6.42803C13.1403 5.94923 12.2219 5.21983 12.2124 5.21255C12.1331 5.15767 12.0262 5.15767 11.9469 5.21255C11.9385 5.21983 11.019 5.94923 9.59604 6.42803C8.20696 6.93539 6.9492 6.98803 6.8372 6.98803L6.45416 7.04403C6.32536 7.05803 6.2226 7.07539 6.2226 7.20335V12.7767C6.2226 15.6143 9.9508 18.61 12.0782 18.7648C14.2348 18.61 17.9353 15.6143 17.9353 12.7767V7.20475C17.9367 7.07539 17.8339 7.07203 17.7054 7.04403ZM16.2752 11.2913C16.2752 11.2913 12.5092 12.9498 10.6704 13.7828C10.354 13.8421 10.424 13.8668 10.0692 13.8668C9.8136 13.864 9.8024 13.857 9.39472 13.8449C9.27432 13.8393 9.11976 13.8382 9.01028 13.7173L8.06052 12.6575C8.00704 12.597 8.212 12.4967 8.00032 12.4267C8.01936 12.3441 8.06192 12.2699 8.12352 12.2125C8.492 12.1028 8.43404 12.0644 8.60792 12.1453C8.90752 12.3332 9.38912 12.4567 9.7506 12.6709C9.77524 12.6846 9.8038 12.6877 9.83124 12.6796L10.7891 12.3293C10.8384 12.4844 10.9179 12.2072 10.8084 12.126L9.16344 11.092C9.07048 11.043 8.98704 10.9444 9.16204 10.7848C9.27292 10.7148 9.598 10.6392 9.49748 10.5706C9.59856 10.5062 9.74248 10.4018 9.90516 10.4446C10.9767 10.6765 12.0469 10.9167 13.1182 11.1527C13.1347 11.1555 13.1526 11.1541 13.1702 11.1474C13.2209 11.1295 14.0517 10.8453 15.1952 10.4553C15.4108 10.3539 15.4693 10.4376 15.7252 10.586C16.1167 10.3825 16.4054 10.5804 16.5283 10.7613C16.6366 10.9181 16.5666 11.1457 16.2752 11.2913Z" fill="#2470EA"/>
<path fill-rule="evenodd" clip-rule="evenodd" d="M17.3221 6.98803L17.7054 7.04403C17.7205 7.04731 17.7352 7.05025 17.7494 7.0531C17.8566 7.07454 17.9365 7.09054 17.9353 7.20475V12.7767C17.9353 15.6143 14.2348 18.61 12.0782 18.7648C9.9508 18.61 6.2226 15.6143 6.2226 12.7767V7.20335C6.2226 7.07539 6.32536 7.05803 6.45416 7.04403L6.8372 6.98803C6.9492 6.98803 8.20696 6.93539 9.59604 6.42803C11.019 5.94923 11.9385 5.21983 11.9469 5.21255C12.0262 5.15767 12.1331 5.15767 12.2124 5.21255C12.2125 5.21266 12.2129 5.21297 12.2135 5.21346C12.2518 5.24338 13.1633 5.95698 14.5646 6.42803C15.9523 6.93539 17.3098 6.98803 17.3221 6.98803ZM10.6704 13.7828C12.5092 12.9498 16.2752 11.2913 16.2752 11.2913C16.5666 11.1457 16.6366 10.9181 16.5283 10.7613C16.4054 10.5804 16.1167 10.3825 15.7252 10.586C15.6821 10.561 15.6445 10.5378 15.6109 10.517C15.4451 10.4147 15.3744 10.371 15.1952 10.4553C14.0517 10.8453 13.2209 11.1295 13.1702 11.1474C13.1526 11.1541 13.1347 11.1555 13.1182 11.1527C12.756 11.073 12.394 10.9927 12.032 10.9124C11.3232 10.7552 10.6145 10.5981 9.90516 10.4446C9.75419 10.4049 9.61938 10.4919 9.51997 10.5562C9.51225 10.5611 9.50475 10.566 9.49748 10.5706C9.56492 10.6167 9.44077 10.6658 9.31827 10.7144C9.2582 10.7382 9.19852 10.7618 9.16204 10.7848C8.98704 10.9444 9.07048 11.043 9.16344 11.092L10.8084 12.126C10.9179 12.2072 10.8384 12.4844 10.7891 12.3293L9.83124 12.6796C9.8038 12.6877 9.77524 12.6846 9.7506 12.6709C9.56881 12.5632 9.35665 12.4784 9.15253 12.3969C8.95076 12.3162 8.75685 12.2387 8.60792 12.1453C8.48479 12.088 8.47791 12.0906 8.35357 12.1359C8.3023 12.1546 8.23108 12.1805 8.12352 12.2125C8.06192 12.2699 8.01936 12.3441 8.00032 12.4267C8.1334 12.4708 8.1018 12.5267 8.07328 12.5772C8.05643 12.6071 8.04066 12.635 8.06052 12.6575L9.01028 13.7173C9.11463 13.8326 9.25993 13.839 9.37758 13.8442C9.38336 13.8444 9.38907 13.8447 9.39472 13.8449C9.57708 13.8503 9.68011 13.8547 9.76117 13.8582C9.86133 13.8624 9.92795 13.8652 10.0692 13.8668C10.3099 13.8668 10.3551 13.8554 10.458 13.8296C10.5068 13.8174 10.5686 13.8019 10.6704 13.7828Z" fill="url(#paint0_linear_2_3695)"/>
<defs>
<linearGradient id="paint0_linear_2_3695" x1="6.7581" y1="19.3585" x2="21.374" y2="14.7982" gradientUnits="userSpaceOnUse">
<stop stop-color="#A3BDED" stop-opacity="0.39"/>
<stop offset="1" stop-color="#6991C7" stop-opacity="0.39"/>
</linearGradient>
</defs>
</svg>