<svg xmlns="http://www.w3.org/2000/svg" width="24" height="24" viewBox="0 0 24 24" fill="none">
<mask id="mask0_2_3904" style="mask-type:luminance" maskUnits="userSpaceOnUse" x="5" y="2" width="16" height="20">
<path fill-rule="evenodd" clip-rule="evenodd" d="M5 2H20.152V21.5686H5V2Z" fill="white"/>
</mask>
<g mask="url(#mask0_2_3904)">
<path fill-rule="evenodd" clip-rule="evenodd" d="M17.9458 16.7271C17.8129 16.8607 17.6586 17.0223 17.4284 16.955C17.1991 16.8881 17.1479 16.6969 17.1329 16.49C17.022 14.9643 16.3714 13.7224 15.1763 12.7531C14.9837 12.5969 14.7072 12.3845 14.8693 12.0963C15.04 11.7928 15.3998 11.8134 15.706 11.8391C17.3171 11.9742 18.5145 13.3108 18.5177 14.9619C18.5301 15.6155 18.4321 16.2383 17.9458 16.7271ZM13.3024 8.61703C13.153 8.90203 12.91 8.96736 12.7935 8.62581C12.5704 7.97157 12.1727 7.48592 11.5913 7.12826C11.4744 7.05641 11.3989 6.94132 11.4572 6.79509C11.5147 6.65086 11.6541 6.64407 11.7851 6.62451C12.6258 6.49904 13.4266 7.22712 13.4182 8.20029C13.3961 8.28492 13.3809 8.46734 13.3024 8.61703ZM8.85037 12.4025C8.62684 12.8789 8.44788 13.3876 7.98857 13.7038C7.73856 13.8757 7.47856 13.821 7.25942 13.6265C6.97428 13.3733 6.71376 13.0792 6.73718 12.679C6.75514 12.3717 7.03775 12.2471 7.30799 12.2201C7.72339 12.1785 8.14358 12.1761 8.56164 12.1765C8.69084 12.1767 8.90027 12.1413 8.85037 12.4025ZM19.0529 12.2618C18.1699 11.0839 17.0316 10.3043 15.5939 9.9871C15.0702 9.87161 14.7876 9.51609 14.8653 9.09017C15.2263 7.11043 13.6747 5.41809 11.7012 5.21185C10.8623 5.1243 10.1381 4.70837 9.3041 4.64863C8.81259 4.6135 8.54488 3.67279 8.81232 3.18581C8.99727 2.84904 9.45099 2.57934 9.09466 1.99988C8.55619 2.7885 8.02223 3.52776 7.23747 4.02672C7.13461 4.09219 7.11705 4.20542 7.236 4.29629C7.36547 4.39529 7.50092 4.45663 7.66218 4.36721C7.86869 4.25239 8.06814 3.91762 8.30192 4.31905C8.47542 4.61669 8.582 4.86724 8.41302 5.28211C8.11697 6.00899 7.68201 6.6607 7.38689 7.37428C6.7912 8.81488 6.9796 10.1707 8.06175 11.354C8.13214 11.431 8.24696 11.4839 8.22288 11.6443C7.9279 11.6825 7.6236 11.7031 7.32768 11.7637C6.19857 11.9949 5.88229 12.7504 6.65002 13.6113C7.07288 14.0855 6.9639 14.3227 6.63526 14.7335C6.3251 15.1212 6.13137 15.6009 5.88655 16.0402C5.89945 16.3529 5.62696 16.4091 5.43602 16.5448C5.01157 16.8465 4.85922 17.3232 5.14928 17.6966C5.65157 18.3434 5.49603 19.2291 6.06045 19.837C6.24168 20.032 6.12392 20.2902 5.9234 20.4795C5.81616 20.5809 5.6698 20.7114 5.85674 20.8593C6.01069 20.981 6.14468 20.8756 6.26576 20.7714C6.72028 20.3807 6.58363 19.9074 6.41837 19.4115C7.12477 19.8652 7.18704 20.1558 6.79253 20.9408C6.70152 21.1218 6.4354 21.3484 6.68848 21.5104C7.00595 21.7136 7.07753 21.3327 7.1893 21.1541C7.73909 20.2759 7.53684 19.525 6.5662 18.852C7.79617 19.0747 8.13427 19.6248 7.81254 20.6054C7.76477 20.7511 7.69185 20.8885 7.63757 21.0322C7.58607 21.1685 7.59552 21.2946 7.74694 21.3641C7.87627 21.4235 7.94612 21.3297 8.01904 21.2468C8.72903 20.4387 8.46039 19.0524 7.47511 18.6005C6.95619 18.3626 6.52296 18.1839 6.91188 17.4798C7.07447 17.1853 6.9325 16.7907 6.62674 16.6052C6.23981 16.3707 6.36595 16.1235 6.49395 15.8324C6.93649 14.826 7.32715 14.4672 8.52053 14.0118C8.23047 15.4292 8.35301 16.7688 9.09147 18.0303C10.236 19.9855 12.5946 21.1683 14.8734 20.8993C17.2903 20.614 18.9886 19.1446 19.9079 16.8979C19.9793 16.7233 20.0429 16.4653 20.085 16.1661C20.1584 15.6429 20.189 15.0993 20.085 14.5815C19.9182 13.7522 19.5791 12.9638 19.0529 12.2618Z" fill="#81828E"/>
</g>
</svg>