<svg xmlns="http://www.w3.org/2000/svg" width="24" height="24" viewBox="0 0 24 24" fill="none">
<path fill-rule="evenodd" clip-rule="evenodd" d="M15.507 16.5095C14.8312 16.5095 14.1815 16.4579 13.5708 16.3582C13.582 16.3004 13.5932 16.2436 13.5932 16.183V14.5903C14.1965 14.6823 14.8386 14.7313 15.507 14.7313C17.249 14.7313 19.0663 14.3774 20 13.708V15.102C20 15.6891 18.2906 16.5095 15.507 16.5095ZM8.47572 20C5.70327 20 4 19.1835 4 18.5977V17.2114C4.93109 17.8779 6.73977 18.2309 8.47572 18.2309C10.2117 18.2309 12.02 17.8779 12.9524 17.2114V18.5977C12.9524 19.1835 11.2491 20 8.47572 20ZM8.47572 9.95165C11.2491 9.95165 12.9524 10.7682 12.9524 11.3543C12.9524 11.9389 11.2491 12.7554 8.47572 12.7554C5.70198 12.7554 4 11.9389 4 11.3543C4 10.7682 5.70327 9.95165 8.47572 9.95165ZM11.014 8.86029C11.9476 9.53066 13.7637 9.88487 15.507 9.88487C17.249 9.88487 19.0663 9.53066 20 8.86029V10.2552C20 10.8427 18.2906 11.663 15.507 11.663C14.8399 11.663 14.1779 11.6088 13.5733 11.5105C13.582 11.4588 13.5932 11.4082 13.5932 11.3543C13.5932 10.4897 12.4756 9.88616 11.014 9.56711V8.86029ZM15.507 4C18.2906 4 20 4.82037 20 5.4075C20 5.99593 18.2906 6.8163 15.507 6.8163C12.7233 6.8163 11.014 5.99593 11.014 5.4075C11.014 4.82037 12.7224 4 15.507 4ZM20 7.83217C20 8.4193 18.2906 9.23967 15.507 9.23967C12.7233 9.23967 11.014 8.4193 11.014 7.83217V6.43821C11.9476 7.10728 13.7637 7.4615 15.507 7.4615C17.249 7.4615 19.0663 7.10728 20 6.43821V7.83217ZM4 14.7968C4.93237 15.4636 6.74105 15.8165 8.47572 15.8165C10.2117 15.8165 12.02 15.4636 12.9524 14.7968V16.183C12.9524 16.7692 11.2491 17.5857 8.47572 17.5857C5.70327 17.5857 4 16.7692 4 16.183V14.7968ZM12.9524 13.7687C12.9524 14.3532 11.2491 15.1713 8.47572 15.1713C5.70198 15.1713 4 14.3545 4 13.7687V12.3824C4.93109 13.0489 6.73977 13.4006 8.47572 13.4006C10.2117 13.4006 12.02 13.0489 12.9524 12.3824V13.7687ZM20 12.6786C20 13.2657 18.2906 14.0861 15.507 14.0861C14.8274 14.0861 14.1779 14.0345 13.5721 13.9351C13.582 13.8796 13.5932 13.8254 13.5932 13.7687V12.1657C14.1991 12.2589 14.8399 12.3082 15.507 12.3082C17.249 12.3082 19.0663 11.954 20 11.285V12.6786Z" fill="#79B8D2"/>
</svg>