<svg xmlns="http://www.w3.org/2000/svg" width="24" height="24" viewBox="0 0 24 24" fill="none">
<mask id="mask0_2_3900" style="mask-type:luminance" maskUnits="userSpaceOnUse" x="4" y="4" width="16" height="17">
<path fill-rule="evenodd" clip-rule="evenodd" d="M4 4H19.9828V20.4065H4V4Z" fill="white"/>
</mask>
<g mask="url(#mask0_2_3900)">
<path fill-rule="evenodd" clip-rule="evenodd" d="M9.93179 4H10.2614C10.5835 4.10697 10.9075 4.19736 11.2107 4.36701C11.5193 4.53963 11.8831 4.46557 12.223 4.46062C12.6703 4.45402 13.0939 4.46705 13.4277 4.83612C13.5551 4.97682 13.7551 5.02219 13.953 5.04322C14.6454 5.11687 15.2333 5.34986 15.4929 6.07118C15.5392 6.19967 15.6554 6.24619 15.7833 6.27002C16.6054 6.42334 17.1071 6.88619 17.2027 7.73551C17.2214 7.90194 17.3082 8.00643 17.4576 8.0772C17.8849 8.27959 18.2699 8.52816 18.4792 8.98045C18.5504 9.13452 18.7136 9.20173 18.8528 9.29014C19.2719 9.55629 19.5141 9.8979 19.6271 10.4214C19.8061 11.2515 19.6571 12.0729 19.7296 12.8923C19.7723 13.375 19.9036 13.8494 19.9828 14.3297V14.9036C19.9136 15.4944 19.6302 15.9451 19.1085 16.2459C18.9659 16.328 18.924 16.4642 18.9223 16.6294C18.915 17.3194 18.7449 17.9797 18.5114 18.623C18.2968 19.2142 17.9078 19.3833 17.308 19.1784C16.6887 18.9668 16.2718 18.4753 15.7881 18.0807C14.5273 17.052 13.2751 16.0127 11.9114 15.1184C11.4295 14.8023 10.9189 14.5435 10.348 14.4098C10.0442 14.3386 9.81534 14.4062 9.6146 14.6379C8.8 15.5783 7.87299 16.4132 7.04586 17.3422C6.248 18.2384 5.37971 19.0756 4.75612 20.1156C4.55225 20.4555 4.17814 20.5017 4 20.2325V19.8225C4.22631 19.3362 4.68437 19.0502 5.03274 18.6732C6.38598 17.2085 7.68858 15.7005 8.99711 14.1973C9.29889 13.8507 9.37823 13.4255 9.41245 12.981C9.51381 11.6642 9.0692 10.4918 8.49748 9.33979C7.98136 8.29988 7.30334 7.34961 6.82713 6.2894C6.46804 5.4899 6.64256 5.07332 7.46153 4.78161C7.56841 4.74359 7.65633 4.68495 7.73105 4.60198C7.82647 4.49625 7.95951 4.39159 8.08544 4.42235C8.6254 4.55431 9.06689 4.26029 9.54499 4.12536C9.67555 4.08849 9.80932 4.06153 9.93179 4Z" fill="#F3A200"/>
</g>
</svg>